<?xml version="1.0" encoding="UTF-8" standalone="no"?>
<!-- Created with Inkscape (http://www.inkscape.org/) -->

<svg
   width="6in"
   height="6in"
   viewBox="0 0 152.4 152.4"
   version="1.1"
   id="svg1"
   sodipodi:docname="6x6.svg"
   inkscape:version="1.4.2 (ebf0e940, 2025-05-08)"
   xmlns:inkscape="http://www.inkscape.org/namespaces/inkscape"
   xmlns:sodipodi="http://sodipodi.sourceforge.net/DTD/sodipodi-0.dtd"
   xmlns="http://www.w3.org/2000/svg"
   xmlns:svg="http://www.w3.org/2000/svg">
  <sodipodi:namedview
     id="namedview1"
     pagecolor="#ffffff"
     bordercolor="#000000"
     borderopacity="0.25"
     inkscape:showpageshadow="2"
     inkscape:pageopacity="0.0"
     inkscape:pagecheckerboard="0"
     inkscape:deskcolor="#d1d1d1"
     inkscape:document-units="in"
     showguides="false"
     inkscape:zoom="0.42863216"
     inkscape:cx="3.4995041"
     inkscape:cy="408.27548"
     inkscape:window-width="1472"
     inkscape:window-height="891"
     inkscape:window-x="0"
     inkscape:window-y="37"
     inkscape:window-maximized="0"
     inkscape:current-layer="layer1" />
  <defs
     id="defs1">
    <inkscape:path-effect
       effect="bspline"
       id="path-effect143"
       is_visible="true"
       lpeversion="1.3"
       weight="33.333333"
       steps="2"
       helper_size="0"
       apply_no_weight="true"
       apply_with_weight="true"
       only_selected="false"
       uniform="false" />
    <inkscape:path-effect
       effect="bspline"
       id="path-effect135"
       is_visible="true"
       lpeversion="1.3"
       weight="33.333333"
       steps="2"
       helper_size="0"
       apply_no_weight="true"
       apply_with_weight="true"
       only_selected="false"
       uniform="false" />
    <inkscape:path-effect
       effect="bspline"
       id="path-effect133"
       is_visible="true"
       lpeversion="1.3"
       weight="33.333333"
       steps="2"
       helper_size="0"
       apply_no_weight="true"
       apply_with_weight="true"
       only_selected="false"
       uniform="false" />
    <inkscape:path-effect
       effect="bspline"
       id="path-effect131"
       is_visible="true"
       lpeversion="1.3"
       weight="33.333333"
       steps="2"
       helper_size="0"
       apply_no_weight="true"
       apply_with_weight="true"
       only_selected="false"
       uniform="false" />
    <inkscape:path-effect
       effect="bspline"
       id="path-effect127"
       is_visible="true"
       lpeversion="1.3"
       weight="33.333333"
       steps="2"
       helper_size="0"
       apply_no_weight="true"
       apply_with_weight="true"
       only_selected="false"
       uniform="false" />
    <inkscape:path-effect
       effect="bspline"
       id="path-effect126"
       is_visible="true"
       lpeversion="1.3"
       weight="33.333333"
       steps="2"
       helper_size="0"
       apply_no_weight="true"
       apply_with_weight="true"
       only_selected="false"
       uniform="false" />
    <inkscape:path-effect
       effect="bspline"
       id="path-effect125"
       is_visible="true"
       lpeversion="1.3"
       weight="33.333333"
       steps="2"
       helper_size="0"
       apply_no_weight="true"
       apply_with_weight="true"
       only_selected="false"
       uniform="false" />
    <inkscape:path-effect
       effect="bspline"
       id="path-effect124"
       is_visible="true"
       lpeversion="1.3"
       weight="33.333333"
       steps="2"
       helper_size="0"
       apply_no_weight="true"
       apply_with_weight="true"
       only_selected="false"
       uniform="false" />
    <inkscape:path-effect
       effect="bspline"
       id="path-effect123"
       is_visible="true"
       lpeversion="1.3"
       weight="33.333333"
       steps="2"
       helper_size="0"
       apply_no_weight="true"
       apply_with_weight="true"
       only_selected="false"
       uniform="false" />
    <inkscape:path-effect
       effect="bspline"
       id="path-effect122"
       is_visible="true"
       lpeversion="1.3"
       weight="33.333333"
       steps="2"
       helper_size="0"
       apply_no_weight="true"
       apply_with_weight="true"
       only_selected="false"
       uniform="false" />
    <inkscape:path-effect
       effect="bspline"
       id="path-effect121"
       is_visible="true"
       lpeversion="1.3"
       weight="33.333333"
       steps="2"
       helper_size="0"
       apply_no_weight="true"
       apply_with_weight="true"
       only_selected="false"
       uniform="false" />
    <inkscape:path-effect
       effect="bspline"
       id="path-effect118"
       is_visible="true"
       lpeversion="1.3"
       weight="33.333333"
       steps="2"
       helper_size="0"
       apply_no_weight="true"
       apply_with_weight="true"
       only_selected="false"
       uniform="false" />
    <inkscape:path-effect
       effect="bspline"
       id="path-effect115"
       is_visible="true"
       lpeversion="1.3"
       weight="33.333333"
       steps="2"
       helper_size="0"
       apply_no_weight="true"
       apply_with_weight="true"
       only_selected="false"
       uniform="false" />
    <inkscape:path-effect
       effect="bspline"
       id="path-effect111"
       is_visible="true"
       lpeversion="1.3"
       weight="33.333333"
       steps="2"
       helper_size="0"
       apply_no_weight="true"
       apply_with_weight="true"
       only_selected="false"
       uniform="false" />
    <inkscape:path-effect
       effect="bspline"
       id="path-effect108"
       is_visible="true"
       lpeversion="1.3"
       weight="33.333333"
       steps="2"
       helper_size="0"
       apply_no_weight="true"
       apply_with_weight="true"
       only_selected="false"
       uniform="false" />
    <inkscape:path-effect
       effect="bspline"
       id="path-effect106"
       is_visible="true"
       lpeversion="1.3"
       weight="33.333333"
       steps="2"
       helper_size="0"
       apply_no_weight="true"
       apply_with_weight="true"
       only_selected="false"
       uniform="false" />
    <inkscape:path-effect
       effect="bspline"
       id="path-effect105"
       is_visible="true"
       lpeversion="1.3"
       weight="33.333333"
       steps="2"
       helper_size="0"
       apply_no_weight="true"
       apply_with_weight="true"
       only_selected="false"
       uniform="false" />
    <inkscape:path-effect
       effect="bspline"
       id="path-effect96"
       is_visible="true"
       lpeversion="1.3"
       weight="33.333333"
       steps="2"
       helper_size="0"
       apply_no_weight="true"
       apply_with_weight="true"
       only_selected="false"
       uniform="false" />
    <inkscape:path-effect
       effect="bspline"
       id="path-effect95"
       is_visible="true"
       lpeversion="1.3"
       weight="33.333333"
       steps="2"
       helper_size="0"
       apply_no_weight="true"
       apply_with_weight="true"
       only_selected="false"
       uniform="false" />
    <inkscape:path-effect
       effect="bspline"
       id="path-effect94"
       is_visible="true"
       lpeversion="1.3"
       weight="33.333333"
       steps="2"
       helper_size="0"
       apply_no_weight="true"
       apply_with_weight="true"
       only_selected="false"
       uniform="false" />
    <inkscape:path-effect
       effect="bspline"
       id="path-effect93"
       is_visible="true"
       lpeversion="1.3"
       weight="33.333333"
       steps="2"
       helper_size="0"
       apply_no_weight="true"
       apply_with_weight="true"
       only_selected="false"
       uniform="false" />
    <inkscape:path-effect
       effect="bspline"
       id="path-effect92"
       is_visible="true"
       lpeversion="1.3"
       weight="33.333333"
       steps="2"
       helper_size="0"
       apply_no_weight="true"
       apply_with_weight="true"
       only_selected="false"
       uniform="false" />
    <inkscape:path-effect
       effect="bspline"
       id="path-effect91"
       is_visible="true"
       lpeversion="1.3"
       weight="33.333333"
       steps="2"
       helper_size="0"
       apply_no_weight="true"
       apply_with_weight="true"
       only_selected="false"
       uniform="false" />
    <inkscape:path-effect
       effect="bspline"
       id="path-effect90"
       is_visible="true"
       lpeversion="1.3"
       weight="33.333333"
       steps="2"
       helper_size="0"
       apply_no_weight="true"
       apply_with_weight="true"
       only_selected="false"
       uniform="false" />
    <inkscape:path-effect
       effect="bspline"
       id="path-effect89"
       is_visible="true"
       lpeversion="1.3"
       weight="33.333333"
       steps="2"
       helper_size="0"
       apply_no_weight="true"
       apply_with_weight="true"
       only_selected="false"
       uniform="false" />
    <inkscape:path-effect
       effect="bspline"
       id="path-effect88"
       is_visible="true"
       lpeversion="1.3"
       weight="33.333333"
       steps="2"
       helper_size="0"
       apply_no_weight="true"
       apply_with_weight="true"
       only_selected="false"
       uniform="false" />
    <inkscape:path-effect
       effect="bspline"
       id="path-effect87"
       is_visible="true"
       lpeversion="1.3"
       weight="33.333333"
       steps="2"
       helper_size="0"
       apply_no_weight="true"
       apply_with_weight="true"
       only_selected="false"
       uniform="false" />
    <inkscape:path-effect
       effect="bspline"
       id="path-effect74"
       is_visible="true"
       lpeversion="1.3"
       weight="33.333333"
       steps="2"
       helper_size="0"
       apply_no_weight="true"
       apply_with_weight="true"
       only_selected="false"
       uniform="false" />
    <inkscape:path-effect
       effect="bspline"
       id="path-effect73"
       is_visible="true"
       lpeversion="1.3"
       weight="33.333333"
       steps="2"
       helper_size="0"
       apply_no_weight="true"
       apply_with_weight="true"
       only_selected="false"
       uniform="false" />
    <inkscape:path-effect
       effect="bspline"
       id="path-effect72"
       is_visible="true"
       lpeversion="1.3"
       weight="33.333333"
       steps="2"
       helper_size="0"
       apply_no_weight="true"
       apply_with_weight="true"
       only_selected="false"
       uniform="false" />
    <inkscape:path-effect
       effect="bspline"
       id="path-effect71"
       is_visible="true"
       lpeversion="1.3"
       weight="33.333333"
       steps="2"
       helper_size="0"
       apply_no_weight="true"
       apply_with_weight="true"
       only_selected="false"
       uniform="false" />
    <inkscape:path-effect
       effect="bspline"
       id="path-effect70"
       is_visible="true"
       lpeversion="1.3"
       weight="33.333333"
       steps="2"
       helper_size="0"
       apply_no_weight="true"
       apply_with_weight="true"
       only_selected="false"
       uniform="false" />
    <inkscape:path-effect
       effect="bspline"
       id="path-effect69"
       is_visible="true"
       lpeversion="1.3"
       weight="33.333333"
       steps="2"
       helper_size="0"
       apply_no_weight="true"
       apply_with_weight="true"
       only_selected="false"
       uniform="false" />
    <inkscape:path-effect
       effect="bspline"
       id="path-effect65"
       is_visible="true"
       lpeversion="1.3"
       weight="33.333333"
       steps="2"
       helper_size="0"
       apply_no_weight="true"
       apply_with_weight="true"
       only_selected="false"
       uniform="false" />
    <inkscape:path-effect
       effect="bspline"
       id="path-effect64"
       is_visible="true"
       lpeversion="1.3"
       weight="33.333333"
       steps="2"
       helper_size="0"
       apply_no_weight="true"
       apply_with_weight="true"
       only_selected="false"
       uniform="false" />
    <inkscape:path-effect
       effect="bspline"
       id="path-effect59"
       is_visible="true"
       lpeversion="1.3"
       weight="33.333333"
       steps="2"
       helper_size="0"
       apply_no_weight="true"
       apply_with_weight="true"
       only_selected="false"
       uniform="false" />
    <inkscape:path-effect
       effect="bspline"
       id="path-effect58"
       is_visible="true"
       lpeversion="1.3"
       weight="33.333333"
       steps="2"
       helper_size="0"
       apply_no_weight="true"
       apply_with_weight="true"
       only_selected="false"
       uniform="false" />
    <inkscape:path-effect
       effect="bspline"
       id="path-effect57"
       is_visible="true"
       lpeversion="1.3"
       weight="33.333333"
       steps="2"
       helper_size="0"
       apply_no_weight="true"
       apply_with_weight="true"
       only_selected="false"
       uniform="false" />
    <inkscape:path-effect
       effect="bspline"
       id="path-effect52"
       is_visible="true"
       lpeversion="1.3"
       weight="33.333333"
       steps="2"
       helper_size="0"
       apply_no_weight="true"
       apply_with_weight="true"
       only_selected="false"
       uniform="false" />
    <inkscape:path-effect
       effect="bspline"
       id="path-effect51"
       is_visible="true"
       lpeversion="1.3"
       weight="33.333333"
       steps="2"
       helper_size="0"
       apply_no_weight="true"
       apply_with_weight="true"
       only_selected="false"
       uniform="false" />
    <inkscape:path-effect
       effect="bspline"
       id="path-effect50"
       is_visible="true"
       lpeversion="1.3"
       weight="33.333333"
       steps="2"
       helper_size="0"
       apply_no_weight="true"
       apply_with_weight="true"
       only_selected="false"
       uniform="false" />
    <inkscape:path-effect
       effect="bspline"
       id="path-effect45"
       is_visible="true"
       lpeversion="1.3"
       weight="33.333333"
       steps="2"
       helper_size="0"
       apply_no_weight="true"
       apply_with_weight="true"
       only_selected="false"
       uniform="false" />
    <inkscape:path-effect
       effect="bspline"
       id="path-effect44"
       is_visible="true"
       lpeversion="1.3"
       weight="33.333333"
       steps="2"
       helper_size="0"
       apply_no_weight="true"
       apply_with_weight="true"
       only_selected="false"
       uniform="false" />
    <inkscape:path-effect
       effect="bspline"
       id="path-effect43"
       is_visible="true"
       lpeversion="1.3"
       weight="33.333333"
       steps="2"
       helper_size="0"
       apply_no_weight="true"
       apply_with_weight="true"
       only_selected="false"
       uniform="false" />
    <inkscape:path-effect
       effect="bspline"
       id="path-effect39"
       is_visible="true"
       lpeversion="1.3"
       weight="33.333333"
       steps="2"
       helper_size="0"
       apply_no_weight="true"
       apply_with_weight="true"
       only_selected="false"
       uniform="false" />
    <inkscape:path-effect
       effect="bspline"
       id="path-effect38"
       is_visible="true"
       lpeversion="1.3"
       weight="33.333333"
       steps="2"
       helper_size="0"
       apply_no_weight="true"
       apply_with_weight="true"
       only_selected="false"
       uniform="false" />
    <inkscape:path-effect
       effect="bspline"
       id="path-effect36"
       is_visible="true"
       lpeversion="1.3"
       weight="33.333333"
       steps="2"
       helper_size="0"
       apply_no_weight="true"
       apply_with_weight="true"
       only_selected="false"
       uniform="false" />
    <inkscape:path-effect
       effect="bspline"
       id="path-effect34"
       is_visible="true"
       lpeversion="1.3"
       weight="33.333333"
       steps="2"
       helper_size="0"
       apply_no_weight="true"
       apply_with_weight="true"
       only_selected="false"
       uniform="false" />
    <inkscape:path-effect
       effect="bspline"
       id="path-effect33"
       is_visible="true"
       lpeversion="1.3"
       weight="33.333333"
       steps="2"
       helper_size="0"
       apply_no_weight="true"
       apply_with_weight="true"
       only_selected="false"
       uniform="false" />
    <inkscape:path-effect
       effect="bspline"
       id="path-effect32"
       is_visible="true"
       lpeversion="1.3"
       weight="33.333333"
       steps="2"
       helper_size="0"
       apply_no_weight="true"
       apply_with_weight="true"
       only_selected="false"
       uniform="false" />
    <inkscape:path-effect
       effect="bspline"
       id="path-effect31"
       is_visible="true"
       lpeversion="1.3"
       weight="33.333333"
       steps="2"
       helper_size="0"
       apply_no_weight="true"
       apply_with_weight="true"
       only_selected="false"
       uniform="false" />
    <inkscape:path-effect
       effect="bspline"
       id="path-effect30"
       is_visible="true"
       lpeversion="1.3"
       weight="33.333333"
       steps="2"
       helper_size="0"
       apply_no_weight="true"
       apply_with_weight="true"
       only_selected="false"
       uniform="false" />
    <inkscape:path-effect
       effect="bspline"
       id="path-effect29"
       is_visible="true"
       lpeversion="1.3"
       weight="33.333333"
       steps="2"
       helper_size="0"
       apply_no_weight="true"
       apply_with_weight="true"
       only_selected="false"
       uniform="false" />
    <inkscape:path-effect
       effect="bspline"
       id="path-effect28"
       is_visible="true"
       lpeversion="1.3"
       weight="33.333333"
       steps="2"
       helper_size="0"
       apply_no_weight="true"
       apply_with_weight="true"
       only_selected="false"
       uniform="false" />
    <inkscape:path-effect
       effect="bspline"
       id="path-effect27"
       is_visible="true"
       lpeversion="1.3"
       weight="33.333333"
       steps="2"
       helper_size="0"
       apply_no_weight="true"
       apply_with_weight="true"
       only_selected="false"
       uniform="false" />
    <inkscape:path-effect
       effect="bspline"
       id="path-effect26"
       is_visible="true"
       lpeversion="1.3"
       weight="33.333333"
       steps="2"
       helper_size="0"
       apply_no_weight="true"
       apply_with_weight="true"
       only_selected="false"
       uniform="false" />
    <inkscape:path-effect
       effect="bspline"
       id="path-effect25"
       is_visible="true"
       lpeversion="1.3"
       weight="33.333333"
       steps="2"
       helper_size="0"
       apply_no_weight="true"
       apply_with_weight="true"
       only_selected="false"
       uniform="false" />
    <inkscape:path-effect
       effect="bspline"
       id="path-effect24"
       is_visible="true"
       lpeversion="1.3"
       weight="33.333333"
       steps="2"
       helper_size="0"
       apply_no_weight="true"
       apply_with_weight="true"
       only_selected="false"
       uniform="false" />
    <inkscape:path-effect
       effect="bspline"
       id="path-effect23"
       is_visible="true"
       lpeversion="1.3"
       weight="33.333333"
       steps="2"
       helper_size="0"
       apply_no_weight="true"
       apply_with_weight="true"
       only_selected="false"
       uniform="false" />
    <inkscape:path-effect
       effect="bspline"
       id="path-effect22"
       is_visible="true"
       lpeversion="1.3"
       weight="33.333333"
       steps="2"
       helper_size="0"
       apply_no_weight="true"
       apply_with_weight="true"
       only_selected="false"
       uniform="false" />
    <inkscape:path-effect
       effect="bspline"
       id="path-effect21"
       is_visible="true"
       lpeversion="1.3"
       weight="33.333333"
       steps="2"
       helper_size="0"
       apply_no_weight="true"
       apply_with_weight="true"
       only_selected="false"
       uniform="false" />
    <inkscape:path-effect
       effect="bspline"
       id="path-effect20"
       is_visible="true"
       lpeversion="1.3"
       weight="33.333333"
       steps="2"
       helper_size="0"
       apply_no_weight="true"
       apply_with_weight="true"
       only_selected="false"
       uniform="false" />
    <inkscape:path-effect
       effect="bspline"
       id="path-effect18"
       is_visible="true"
       lpeversion="1.3"
       weight="33.333333"
       steps="2"
       helper_size="0"
       apply_no_weight="true"
       apply_with_weight="true"
       only_selected="false"
       uniform="false" />
    <inkscape:path-effect
       effect="bspline"
       id="path-effect17"
       is_visible="true"
       lpeversion="1.3"
       weight="33.333333"
       steps="2"
       helper_size="0"
       apply_no_weight="true"
       apply_with_weight="true"
       only_selected="false"
       uniform="false" />
    <inkscape:path-effect
       effect="bspline"
       id="path-effect16"
       is_visible="true"
       lpeversion="1.3"
       weight="33.333333"
       steps="2"
       helper_size="0"
       apply_no_weight="true"
       apply_with_weight="true"
       only_selected="false"
       uniform="false" />
    <inkscape:path-effect
       effect="bspline"
       id="path-effect15"
       is_visible="true"
       lpeversion="1.3"
       weight="33.333333"
       steps="2"
       helper_size="0"
       apply_no_weight="true"
       apply_with_weight="true"
       only_selected="false"
       uniform="false" />
    <inkscape:path-effect
       effect="bspline"
       id="path-effect13"
       is_visible="true"
       lpeversion="1.3"
       weight="33.333333"
       steps="2"
       helper_size="0"
       apply_no_weight="true"
       apply_with_weight="true"
       only_selected="false"
       uniform="false" />
    <inkscape:path-effect
       effect="bspline"
       id="path-effect12"
       is_visible="true"
       lpeversion="1.3"
       weight="33.333333"
       steps="2"
       helper_size="0"
       apply_no_weight="true"
       apply_with_weight="true"
       only_selected="false"
       uniform="false" />
    <inkscape:path-effect
       effect="bspline"
       id="path-effect11"
       is_visible="true"
       lpeversion="1.3"
       weight="33.333333"
       steps="2"
       helper_size="0"
       apply_no_weight="true"
       apply_with_weight="true"
       only_selected="false"
       uniform="false" />
    <inkscape:path-effect
       effect="bspline"
       id="path-effect10"
       is_visible="true"
       lpeversion="1.3"
       weight="33.333333"
       steps="2"
       helper_size="0"
       apply_no_weight="true"
       apply_with_weight="true"
       only_selected="false"
       uniform="false" />
    <inkscape:path-effect
       effect="bspline"
       id="path-effect9"
       is_visible="true"
       lpeversion="1.3"
       weight="33.333333"
       steps="2"
       helper_size="0"
       apply_no_weight="true"
       apply_with_weight="true"
       only_selected="false"
       uniform="false" />
    <inkscape:path-effect
       effect="bspline"
       id="path-effect8"
       is_visible="true"
       lpeversion="1.3"
       weight="33.333333"
       steps="2"
       helper_size="0"
       apply_no_weight="true"
       apply_with_weight="true"
       only_selected="false"
       uniform="false" />
    <inkscape:path-effect
       effect="bspline"
       id="path-effect7"
       is_visible="true"
       lpeversion="1.3"
       weight="33.333333"
       steps="2"
       helper_size="0"
       apply_no_weight="true"
       apply_with_weight="true"
       only_selected="false"
       uniform="false" />
    <inkscape:path-effect
       effect="bspline"
       id="path-effect6"
       is_visible="true"
       lpeversion="1.3"
       weight="33.333333"
       steps="2"
       helper_size="0"
       apply_no_weight="true"
       apply_with_weight="true"
       only_selected="false"
       uniform="false" />
    <inkscape:path-effect
       effect="bspline"
       id="path-effect5"
       is_visible="true"
       lpeversion="1.3"
       weight="33.333333"
       steps="2"
       helper_size="0"
       apply_no_weight="true"
       apply_with_weight="true"
       only_selected="false"
       uniform="false" />
    <inkscape:path-effect
       effect="bspline"
       id="path-effect4"
       is_visible="true"
       lpeversion="1.3"
       weight="33.333333"
       steps="2"
       helper_size="0"
       apply_no_weight="true"
       apply_with_weight="true"
       only_selected="false"
       uniform="false" />
    <inkscape:path-effect
       effect="bspline"
       id="path-effect3"
       is_visible="true"
       lpeversion="1.3"
       weight="33.333333"
       steps="2"
       helper_size="0"
       apply_no_weight="true"
       apply_with_weight="true"
       only_selected="false"
       uniform="false" />
    <inkscape:path-effect
       effect="bspline"
       id="path-effect2"
       is_visible="true"
       lpeversion="1.3"
       weight="33.333333"
       steps="2"
       helper_size="0"
       apply_no_weight="true"
       apply_with_weight="true"
       only_selected="false"
       uniform="false" />
  </defs>
  <g
     inkscape:label="Layer 1"
     inkscape:groupmode="layer"
     id="layer1">
    <path
       d="m 70.371932,43.978194 c -3.506264,-1.956881 -2.605314,2.906263 -4.256071,7.476546 -1.259495,3.487038 -4.004199,6.803726 -5.016231,9.579777 0,0 0,0 0,0 -0.383199,1.051131 -0.518339,2.024466 -0.22996,2.900599 0.208079,0.632171 0.636704,1.213643 1.240234,1.744079 0,0 0,0 0,0 2.441949,2.146204 7.751403,3.458127 12.938228,3.924308 3.826609,0.343928 7.586323,0.227817 9.689331,-1.116211 0,0 0,0 0,0 1.121987,-0.717059 1.77249,-1.783681 1.709974,-3.316076 -0.0035,-0.06237 -0.0076,-0.124414 -0.01137,-0.186552 C 86.405551,64.585797 86.328704,64.156348 86.20094,63.69482 84.60752,57.938816 75.143159,47.161782 70.954325,44.338896 70.747737,44.199675 70.553827,44.079712 70.371932,43.978194 Z"
       style="fill:none;stroke:#ff0000;stroke-width:0.52916667;stroke-dasharray:none"
       id="path61" />
    <path
       d="m 66.749931,18.846912 c -1.09882,-0.193952 -2.183969,-0.247332 -3.232878,-0.126608 -0.790094,0.09094 -1.559568,0.280873 -2.305285,0.553455 0,0 0,0 0,0 -6.760731,2.47125 -11.546803,11.75589 -11.897982,16.339054 -0.01201,0.158071 -0.02413,0.31615 -0.03411,0.472323 -0.0031,0.31929 0.01941,0.60964 0.06873,0.866097 0.799811,4.158632 8.628253,-0.590386 17.367932,-1.596285 8.739679,-1.0059 18.389435,1.73139 17.589624,-2.427242 -0.04397,-0.228603 -0.119307,-0.478044 -0.224276,-0.745174 0,0 0,0 0,0 -1.575381,-4.009126 -9.778484,-12.002401 -17.331758,-13.33562 z"
       style="fill:none;stroke:#ff0000;stroke-width:0.52916667;stroke-dasharray:none"
       id="path54" />
    <path
       d="m 68.828357,14.531413 c -1.719719,-0.714736 -3.444031,-1.15167 -5.138188,-1.229899 -2.175314,-0.100448 -4.300853,0.390531 -6.305041,1.35909 0,0 0,0 0,0 -4.311862,2.083783 -8.061171,6.376161 -10.52959,11.732617 -3.61576,7.846181 -4.483484,17.975555 -1.04128,19.626192 0.976145,0.46809 2.298758,0.254 3.902087,-0.31936 0,0 0,0 0,0 4.05053,-1.448494 9.892281,-5.191895 16.461528,-6.034257 8.179091,-1.04879 17.485533,2.399726 21.822957,2.210201 0,0 0,0 0,0 0.525255,-0.02295 0.977478,-0.09929 1.346171,-0.243396 0.833477,-0.325764 1.239191,-0.99773 1.295528,-1.924947 0,0 0,0 0,0 0.174377,-2.869946 -2.998848,-8.182488 -7.19646,-13.223999 C 79.2648,21.461772 74.067415,16.708829 68.828357,14.531413 Z"
       style="fill:none;stroke:#ff0000;stroke-width:0.52916667;stroke-dasharray:none"
       id="path47" />
    <path
       d="m 64.370231,-12.254549 c -8.254583,-0.581361 -19.906655,1.095737 -23.830587,4.0633177 -5.231908,3.9567738 3.275482,10.2077885 4.594035,18.7864503 1.318553,8.578662 -4.551433,19.484557 -6.071464,27.715104 -1.520031,8.230547 1.309718,13.785556 6.695716,13.629142 4.444197,-0.129063 10.628594,-4.146704 13.511836,-4.699971 0.212114,-0.05301 0.425429,-0.09772 0.642855,-0.118856 0.333107,-0.03238 0.675624,-0.0094 0.862996,0.166398 0.187373,0.17581 0.219527,0.504344 0.201022,0.844393 -0.01307,0.240189 -0.05124,0.486157 -0.09715,0.733805 -0.322644,3.114116 -3.605989,9.914033 -3.45612,14.363465 0.0085,0.252219 0.02812,0.496989 0.05839,0.734322 0,0 0,0 0,0 0.211257,1.655874 0.946025,2.954836 2.109432,3.972884 0,0 0,0 0,0 2.246561,1.965871 6.091864,2.884072 10.854117,3.301607 7.581913,0.664752 17.487249,0.06025 20.569288,-2.699577 1.16666,-1.04469 1.355088,-2.398104 0.883667,-3.95428 0,0 0,0 0,0 -0.773962,-2.554871 -3.327567,-5.656277 -6.256466,-8.834603 -3.767913,-4.088791 -8.156209,-8.304308 -8.521961,-10.360608 -0.02995,-0.114176 -0.05962,-0.228804 -0.06563,-0.356051 -0.0061,-0.129181 0.01205,-0.271418 0.08578,-0.402042 0.07373,-0.130624 0.203001,-0.249648 0.359152,-0.322978 0.156152,-0.07333 0.339011,-0.100834 0.521931,-0.128674 2.707985,-0.617489 11.216586,1.751283 15.161349,0.14056 0,0 0,0 0,0 0.350914,-0.143285 0.666068,-0.317976 0.93741,-0.529167 0.52407,-0.407894 0.885699,-0.951904 1.101742,-1.605587 0,0 0,0 0,0 C 96.433825,38.516594 93.049654,31.38582 87.904195,25.351941 81.84173,18.242724 73.335053,12.65697 72.229183,6.106604 c -1.10587,-6.55036603 5.189262,-14.0652103 -1.148767,-16.991211 -1.584507,-0.7315 -3.958657,-1.176155 -6.710185,-1.369942 z"
       style="fill:none;stroke:#ff0000;stroke-width:0.52916667;stroke-dasharray:none"
       id="path80" />
    <path
       d="m 73.601192,51.393245 c -0.784852,-0.196654 -1.584208,-0.175105 -2.381767,0.126608 -0.38669,0.146283 -0.772894,0.358478 -1.1498,0.625285 0,0 0,0 0,0 -2.821929,1.997599 -5.122069,7.063255 -3.194637,10.555428 2.019127,3.65831 8.677678,5.589275 12.266435,4.881355 0,0 0,0 0,0 0.294579,-0.05811 0.568054,-0.133716 0.817004,-0.227893 3.281811,-1.241495 2.228273,-5.660969 0.04341,-9.619568 -1.653901,-2.996583 -3.955905,-5.728656 -6.400643,-6.341215 z"
       style="fill:none;stroke:#ff0000;stroke-width:0.52916667;stroke-dasharray:none"
       id="path67" />
    <path
       d="m 61.462915,-9.5880452 c -6.435038,-0.2182366 -15.065325,1.0069649 -18.052645,2.8024129 -3.983093,2.3939307 2.066123,5.8011037 4.264339,10.6623983 1.476919,3.2661636 1.215388,7.188729 1.256254,9.656775 0,0 0,0 0,0 0.01996,1.205345 0.112133,2.063809 0.514181,2.329573 0.52397,0.346359 1.574301,-0.314261 2.951758,-1.289327 0,0 0,0 0,0 1.84365,-1.305071 4.27308,-3.17368 6.810954,-3.947045 3.270063,-0.9964871 6.719364,-0.173982 8.793261,0.0015 0,0 0,0 0,0 0.738183,0.06248 1.30209,0.0426 1.621607,-0.170016 1.217189,-0.8099385 -1.112153,-4.4223348 -0.736389,-8.6227291 0.375763,-4.2003944 3.457037,-8.9882317 -2.010214,-10.6918539 -1.366812,-0.4259055 -3.268093,-0.6589927 -5.413106,-0.7317382 z"
       style="fill:none;stroke:#ff0000;stroke-width:0.52916667;stroke-dasharray:none"
       id="path40" />
    <path
       style="fill:none;stroke:#ff0000;stroke-width:0.43659165;stroke-dasharray:none"
       d="M 74.716654,-0.44009458 C 71.23849,-1.050548 66.922812,1.1356837 66.283952,2.5269772 c -0.638859,1.3912935 2.39909,1.9875266 3.648414,4.6565388 1.249325,2.6690122 0.709876,7.410484 2.669045,7.722815 1.959168,0.312331 6.416719,-3.804515 7.32532,-7.5666868 0.9086,-3.7621722 -1.731913,-7.16928532 -5.210077,-7.77973878 z"
       id="path9"
       inkscape:path-effect="#path-effect10"
       inkscape:original-d="m 75.554252,-3.2368225 c -4.315762,2.1862747 -8.63144,4.3725063 -12.947289,6.5588247 3.03813,0.5962685 6.076079,1.1925014 9.114209,1.7887701 C 71.181691,9.8525282 70.642242,14.594 70.102761,19.335755 74.560579,15.218662 79.01813,11.101816 83.47595,6.9847222 80.835331,3.5774719 78.194818,0.17035877 75.554252,-3.2368225 Z"
       sodipodi:nodetypes="cccccc"
       transform="matrix(1.3708735,0,0,1.0716099,-44.4043,-7.0938799)" />
    <path
       d="m 65.538118,-16.325102 c -5.703714,-0.26954 -12.693691,0.302029 -19.38538,1.663465 -8.922252,1.815247 -17.313727,5.0347988 -16.598986,10.0655351 0.602511,4.24080545 7.310516,9.5134737 9.843843,15.2352459 0.243622,0.482827 0.48126,0.967592 0.683679,1.461409 0.242961,0.592722 0.435179,1.198661 0.476457,1.993677 0.04128,0.795016 -0.06833,1.778647 -0.230994,2.506307 -0.142875,0.63913 -0.326872,1.081087 -0.51573,1.498617 -1.699112,5.272545 -6.833674,10.317013 -8.314738,16.977775 -1.868654,8.403869 2.743849,17.851463 8.912634,20.424076 4.775679,1.991636 10.236715,-0.341681 13.046749,-0.655774 0.290116,-0.05324 0.580086,-0.101468 0.86713,-0.09715 0.317477,0.0048 0.631241,0.07394 0.823723,0.253215 0.192481,0.179274 0.263777,0.468488 0.26665,0.798401 0.0019,0.214568 -0.02503,0.446575 -0.06201,0.684196 -0.261056,2.991469 -3.505563,9.477133 -1.736844,13.384196 2.087131,4.610427 11.220856,5.518321 21.924759,5.529895 7.652667,0.0083 16.100844,-0.441206 20.178097,-2.880961 0,0 0,0 0,0 1.625664,-0.972769 2.556552,-2.261861 2.464966,-3.964616 -0.0055,-0.102146 -0.01441,-0.20575 -0.02687,-0.310576 0,0 0,0 0,0 -0.601809,-5.063385 -9.174389,-13.181934 -10.79624,-17.549833 -0.147787,-0.294311 -0.280543,-0.593253 -0.359151,-0.909505 -0.108783,-0.437647 -0.113761,-0.908186 0.0052,-1.209228 0.118895,-0.301043 0.361663,-0.43276 0.720886,-0.564307 0.256556,-0.09395 0.572497,-0.187687 0.905372,-0.281637 3.201192,-1.057202 10.573451,0.182381 13.944367,-1.471228 1.06344,-0.521669 1.72853,-1.331034 1.73891,-2.591573 0.004,-0.449597 -0.0791,-0.950464 -0.23823,-1.497066 C 102.09704,35.369406 88.312143,21.512575 82.335543,11.627197 75.878389,0.94697679 79.430844,-4.2170973 81.20693,-6.7990682 c 1.776085,-2.5819708 1.775872,-2.5820699 0.275435,-3.9015708 -1.500436,-1.3195 -4.501183,-3.958286 -10.728027,-5.072558 -1.556711,-0.278569 -3.314981,-0.462058 -5.21622,-0.551905 z"
       style="fill:none;stroke:#ff0000;stroke-width:0.52916667;stroke-dasharray:none"
       id="path102" />
    <path
       style="fill:none;stroke:#ff0000;stroke-width:0.52916667;stroke-dasharray:none"
       d="m 41.397431,158.31167 c 5.960065,-8.84378 11.920068,-17.68747 12.940911,-32.11289 1.020843,-14.42543 -2.897449,-34.432226 9.981107,-37.050462 12.878556,-2.618236 42.552621,12.151952 53.231621,0.678922 10.67899,-11.473031 2.3618,-49.187829 6.14646,-64.110575 3.78467,-14.922745 19.67107,-7.051484 35.55778,0.81993"
       id="path15"
       inkscape:path-effect="#path-effect15"
       inkscape:original-d="M 41.397431,158.31167 C 47.357497,149.46789 53.317498,140.6242 59.277538,131.78046 55.359184,111.77335 51.440893,91.766554 47.522486,71.759169 77.198005,86.530082 106.87207,101.30027 136.54776,116.07127 128.23007,78.354208 119.91287,40.63941 111.59517,2.9223472 127.4822,10.793921 143.3686,18.665182 159.25531,26.536595"
       sodipodi:nodetypes="cccccc" />
    <path
       style="fill:none;stroke:#ff0000;stroke-width:0.52916667;stroke-dasharray:none"
       d="m 169.24092,9.7840039 c -20.78601,-4.9786265 -41.57162,-9.95715726 -48.03361,5.9789391 -6.46198,15.936097 1.40001,52.784802 -9.97528,65.944783 -11.37528,13.159981 -41.987065,2.629437 -54.276675,3.698365 -12.289611,1.068928 -6.256425,13.737541 -7.80028,28.879459 -1.543854,15.14192 -10.664751,32.75714 -19.785648,50.37236"
       id="path20"
       inkscape:path-effect="#path-effect20"
       inkscape:original-d="M 169.24092,9.7840039 C 148.45491,4.8053773 127.6693,-0.17315323 106.88287,-5.1518805 114.74533,31.69904 122.60731,68.547747 130.46978,105.39868 99.856749,94.867709 69.244965,84.337164 38.632558,73.806405 c 6.033187,12.668614 12.066374,25.337226 18.09956,38.005845 -9.120897,17.61522 -18.241793,35.23044 -27.362691,52.84566"
       sodipodi:nodetypes="cccccc" />
    <path
       style="fill:none;stroke:#ff0000;stroke-width:0.43659165;stroke-dasharray:none"
       d="m 161.61478,3.5382674 c -16.51757,-2.73637357 -33.03483,-5.4726957 -39.85779,3.2427504 -6.82296,8.7154462 -3.95115,28.8815892 -6.49511,38.8646862 -2.54396,9.983096 -10.5034,9.782009 -10.2944,13.888243 0.209,4.106234 8.58641,12.519299 1.42856,16.904637 -7.157854,4.385337 -29.850118,4.742413 -38.838424,2.071113 C 58.569311,75.838396 63.286031,70.139036 61.843256,66.153769 60.400481,62.168503 52.798387,59.897805 51.220734,51.695837 49.643081,43.493869 54.090059,29.361619 53.46085,18.18986 52.831642,7.0181017 47.126209,-1.1919843 41.420661,-9.4022359"
       id="path21"
       sodipodi:nodetypes="cccccccccc"
       transform="matrix(1.3708735,0,0,1.0716099,-44.4043,-7.0938799)"
       inkscape:original-d="m 161.61478,3.5382674 c -16.51757,-2.73637377 -33.03483,-5.4726946 -49.55273,-8.209124 2.87197,20.1673216 5.74379,40.3334636 8.61576,60.5007556 C 112.71792,55.6288 104.75848,55.427713 96.798573,55.226614 105.17648,63.640182 113.55389,72.053248 121.93181,80.466823 99.238186,80.82392 76.545922,81.180996 53.852311,81.538094 58.56931,75.838396 63.286031,70.139036 68.003032,64.439337 60.400481,62.168503 52.798387,59.897805 45.195836,57.626971 49.643081,43.493869 54.090059,29.361619 58.537304,15.228518 52.831642,7.0181015 47.126209,-1.1919844 41.420661,-9.4022359"
       inkscape:path-effect="#path-effect21" />
    <path
       d="m 102.33122,-15.039909 c -8.55829,0.259356 -11.762888,2.727687 -14.43891,5.786727 -3.058312,3.4960456 -5.425901,7.7630824 -0.591696,17.8144165 3.921306,8.1532225 12.580712,20.1118305 17.975646,23.2399255 0,0 0,0 0,0 1.25597,0.728236 2.33513,0.977471 3.13624,0.589111 0.77914,-0.377707 1.29559,-1.358648 1.6614,-2.768306 0,0 0,0 0,0 1.62596,-6.265649 0.27976,-20.9965265 5.83685,-28.82408089 6.80735,-9.58861311 23.97269,-8.81716051 22.78879,-10.25673831 -1.18389,-1.4395778 -20.71668,-5.0899138 -32.35823,-5.5526328 -1.45519,-0.05784 -2.78748,-0.06547 -4.01009,-0.02842 z"
       style="fill:none;stroke:#ff0000;stroke-width:0.52916667;stroke-dasharray:none"
       id="path119" />
    <path
       d="m 112.56729,-12.633854 c -4.33011,0.140305 -9.3907,0.800071 -13.252939,2.13527 -7.724484,2.670398 -10.655371,8.041088 -8.261511,15.6026652 1.889835,5.9694918 7.098114,13.3042318 10.85412,15.5391028 0,0 0,0 0,0 1.00174,0.596049 1.90037,0.829294 2.60501,0.577226 0.71391,-0.255386 1.22861,-1.009026 1.63452,-2.109949 0,0 0,0 0,0 1.49692,-4.059948 1.51099,-12.8434754 4.55166,-18.7802486 3.86521,-7.5466279 12.62109,-10.4930044 10.73992,-11.9811804 -0.94059,-0.744089 -4.54067,-1.123192 -8.87078,-0.982886 z"
       style="fill:none;stroke:#ff0000;stroke-width:0.52916667;stroke-dasharray:none"
       id="path116" />
    <path
       style="fill:none;stroke:#ff0000;stroke-width:0.52916667;stroke-dasharray:none"
       d="m 159.86375,40.614033 c -15.7939,-8.153097 -31.58748,-16.306029 -33.98789,-1.615554 -2.4004,14.690476 8.59234,52.222442 -1.1632,61.692571 -9.75554,9.47014 -40.258325,-9.122765 -52.291825,-6.840196 -12.033499,2.282569 -5.596322,25.440856 -7.840522,40.545146 -2.2442,15.1043 -13.16983,22.15426 -24.095567,29.20428"
       id="path24"
       inkscape:path-effect="#path-effect24"
       inkscape:original-d="M 159.86375,40.614033 C 144.06985,32.460937 128.27627,24.308002 112.48205,16.154742 123.47546,53.688954 134.46821,91.220919 145.46161,128.75513 114.95712,110.16119 84.454335,91.568285 53.949957,72.974412 60.387335,96.133423 66.824512,119.29171 73.26178,142.45032 62.336113,149.5003 51.41048,156.55025 40.484746,163.60028"
       sodipodi:nodetypes="cccccc" />
    <path
       style="fill:none;stroke:#ff0000;stroke-width:0.52916667;stroke-dasharray:none"
       d="M 1.6885158,-8.1048761 C 8.5551469,-0.11256771 15.421778,7.8797406 17.954534,20.093503 c 2.532755,12.213762 0.731708,28.648321 6.360225,40.411719 5.628517,11.763398 18.686111,18.855022 20.374531,35.9093 1.688419,17.054278 -7.992213,44.069998 -17.673035,71.086248"
       id="path25"
       inkscape:path-effect="#path-effect25"
       inkscape:original-d="M 1.6885158,-8.1048761 C 8.5551469,-0.11256772 15.421778,7.8797406 22.288409,15.872049 c -1.80112,16.435216 -3.602167,32.869775 -5.403251,49.304662 13.058118,7.091908 26.115713,14.183532 39.173567,21.275299 -9.681016,27.01679 -19.361647,54.03251 -29.04247,81.04876"
       transform="translate(-9.1556936)"
       sodipodi:nodetypes="ccccc" />
    <path
       style="fill:none;stroke:#ff0000;stroke-width:0.52916667;stroke-dasharray:none"
       d="m -13.84583,-4.0524379 c 12.2698817,3.93987041 24.539519,7.8796623 27.804048,19.4743689 3.264529,11.594707 -2.476195,30.843017 1.351184,41.537165 3.827379,10.694148 17.222402,12.832849 20.768356,28.592647 3.545953,15.759797 -2.757714,45.139387 -9.061505,74.519557"
       id="path26"
       inkscape:path-effect="#path-effect26"
       inkscape:original-d="M -13.84583,-4.0524379 C -1.5759483,-0.11256753 10.693689,3.8272243 22.963815,7.7671733 17.222747,27.016638 11.482023,46.264948 5.7409538,65.514414 19.136781,67.653244 32.531804,69.791946 45.92763,71.930775 39.623712,101.31154 33.320045,130.69113 27.016253,160.0713"
       sodipodi:nodetypes="ccccc"
       transform="translate(-8.5242665,1.8942814)" />
    <path
       style="fill:none;stroke:#ff0000;stroke-width:0.52916667;stroke-dasharray:none"
       d="M 1.2628543,-8.2085528 C 10.102834,-4.7357036 18.942638,-1.2629235 20.100278,9.9451313 21.257917,21.153186 14.73343,40.095247 18.943028,52.408322 23.152626,64.721396 38.095805,70.404014 41.200384,86.926687 44.304963,103.44936 35.570398,130.81065 26.835655,158.1725"
       id="path27"
       inkscape:path-effect="#path-effect27"
       inkscape:original-d="M 1.2628543,-8.2085528 C 10.102834,-4.7357036 18.942638,-1.2629234 27.782794,2.2099949 21.257917,21.153186 14.73343,40.095247 8.2085523,59.038439 23.152626,64.721396 38.095805,70.404014 53.039878,76.086971 44.304963,103.44936 35.570396,130.81065 26.835655,158.1725"
       sodipodi:nodetypes="ccccc" />
    <path
       style="fill:none;stroke:#ff0000;stroke-width:0.52916667;stroke-dasharray:none"
       d="m 136.78642,161.95073 c 2.77491,-8.3438 -22.18459,-14.15874 -26.74727,-20.46596 -4.56267,-6.30723 11.27159,-13.10612 7.11972,-22.1862 -4.15188,-9.08007 -28.290074,-20.440655 -38.982338,-8.69735 -10.692264,11.74331 -7.938505,46.59021 8.693671,58.57792 16.632177,11.98771 47.141307,1.1154 49.916217,-7.22841 z"
       id="path28"
       inkscape:path-effect="#path-effect28"
       inkscape:original-d="M 164.52134,159.42198 C 139.56133,153.60692 114.60183,147.79199 89.641317,141.97682 105.47648,135.17754 121.31074,128.37865 137.14585,121.57939 113.00699,110.2185 88.868796,98.857916 64.730481,87.497277 c 2.753788,34.847253 5.507546,69.694153 8.26141,104.542373 30.510489,-10.87279 61.019619,-21.74511 91.529449,-32.61767 z"
       sodipodi:nodetypes="cccccc"
       transform="translate(-2.2119969,-2.580663)" />
    <path
       style="fill:none;stroke:#ff0000;stroke-width:0.52916667;stroke-dasharray:none"
       d="M 173.91489,65.218084 C 154.60671,51.322868 135.29892,37.427936 131.08681,45.122272 c -4.21211,7.694336 6.67159,36.976741 5.23317,50.48218 -1.43841,13.505438 -15.19876,11.232288 -17.922,13.207688 -2.72324,1.97541 5.59095,8.19912 4.63575,13.8357 -0.95519,5.63658 -11.17965,10.68533 -6.03358,17.29807 5.14607,6.61275 25.66245,14.78884 46.17925,22.9651"
       id="path29"
       inkscape:path-effect="#path-effect29"
       inkscape:original-d="M 173.91489,65.218084 C 154.60671,51.322866 135.29892,37.427935 115.99035,23.532441 c 10.88435,29.284168 21.76805,58.566571 32.6524,87.850739 -13.76118,-2.27329 -27.52153,-4.54644 -41.28271,-6.81973 8.3147,6.2241 16.62889,12.44781 24.94359,18.67191 -10.22509,5.04906 -20.44955,10.09781 -30.67463,15.14687 20.51722,8.17642 41.0336,16.35252 61.5504,24.52878"
       sodipodi:nodetypes="ccccccc" />
    <path
       style="fill:none;stroke:#ff0000;stroke-width:0.52916667;stroke-dasharray:none"
       d="M 167.38166,81.017001 C 155.43856,67.202222 143.4957,53.387717 141.31203,57.576798 c -2.18367,4.189081 5.39186,26.380943 3.60927,38.146035 -1.78259,11.765097 -12.92308,13.101957 -15.89099,16.777547 -2.96792,3.67559 2.23727,9.68965 2.59378,14.41337 0.3565,4.72371 -4.13567,8.15708 -0.67754,13.03791 3.45812,4.88084 14.86623,11.20877 26.27456,17.53683"
       id="path30"
       inkscape:path-effect="#path-effect30"
       inkscape:original-d="m 167.38166,81.017001 c -11.9431,-13.814778 -23.88596,-27.629285 -35.8293,-41.444342 7.576,22.19322 15.15153,44.385084 22.72754,66.578321 -11.14119,1.33695 -22.28168,2.67381 -33.42285,4.01075 5.20534,6.01424 10.41053,12.0283 15.61572,18.04236 -4.49218,3.43337 -8.98435,6.86674 -13.47666,10.30022 11.40856,6.32819 22.81667,12.65612 34.225,18.98418"
       sodipodi:nodetypes="ccccccc" />
    <path
       style="fill:none;stroke:#ff0000;stroke-width:0.52916667;stroke-dasharray:none"
       d="m 156.41896,96.792588 c -6.86283,7.041082 -13.72565,14.082162 -16.93424,21.034182 -3.20859,6.95202 -2.76296,13.81471 1.60438,19.69718 4.36733,5.88248 12.65603,10.7844 20.9449,15.68642"
       id="path31"
       inkscape:path-effect="#path-effect31"
       inkscape:original-d="m 156.41896,96.792588 c -6.86283,7.041082 -13.72565,14.082162 -20.58848,21.123242 0.44565,6.86296 0.89128,13.72565 1.33692,20.58848 8.28903,4.90212 16.57773,9.80404 24.8666,14.70606" />
    <path
       style="fill:none;stroke:#ff0000;stroke-width:0.52916667;stroke-dasharray:none"
       d="m 89.8163,157.15922 c -10.580248,-4.63368 -12.433724,-17.76246 -11.777254,-27.14574 0.65647,-9.38327 3.822696,-15.0207 11.429818,-16.0633 7.607122,-1.0426 19.654226,2.50975 19.152226,8.41782 -0.50199,5.90808 -13.553014,14.17115 -10.579672,19.84753 2.973342,5.67638 21.970702,8.76538 21.816242,12.24071 -0.15446,3.47533 -19.46111,7.33666 -30.04136,2.70298 z"
       id="path32"
       inkscape:path-effect="#path-effect32"
       inkscape:original-d="M 81.089526,165.65431 C 79.23605,152.52554 77.382575,139.39676 75.5291,126.26798 c 3.166417,-5.63777 6.332642,-11.2752 9.499058,-16.91297 12.047827,3.55257 24.094932,7.10492 36.142762,10.65749 -13.05182,8.26358 -26.102842,16.52665 -39.154659,24.79022 18.998499,3.08919 37.995859,6.17819 56.994349,9.26737 -19.30741,3.86149 -38.61406,7.72282 -57.921084,11.58422 z"
       sodipodi:nodetypes="ccccccc" />
    <path
       style="fill:none;stroke:#ff0000;stroke-width:0.52916667;stroke-dasharray:none"
       d="m 87.753312,145.85627 c -3.764351,0.90442 -6.599775,-8.38404 -6.281997,-14.8129 0.317778,-6.42886 3.788725,-9.99758 7.553114,-10.90198 3.764389,-0.90441 7.821902,0.85548 7.504128,7.28433 -0.317775,6.42885 -5.010895,17.52612 -8.775245,18.43055 z"
       id="path33"
       inkscape:path-effect="#path-effect33"
       inkscape:original-d="m 86.824444,156.04934 c -2.835484,-9.28865 -5.670906,-18.57711 -8.506448,-27.86595 3.471095,-3.56888 6.942044,-7.1376 10.413066,-10.7064 4.057757,1.75999 8.115268,3.51988 12.173028,5.27987 -4.693312,11.09771 -9.38643,22.19498 -14.079646,33.29248 z"
       sodipodi:nodetypes="ccccc" />
    <path
       d="M 58.299284,8.0077799 C 57.078787,8.6427167 55.942018,8.9821118 55.12325,8.8800781 53.863399,8.7230772 53.356908,7.5216042 52.997799,5.9949829 c 0.06056,0.4328752 0.14229,0.8485961 0.261482,1.2350667 0.276482,0.8964734 0.754459,1.6339186 1.42472,1.8768881 0.670261,0.2429694 1.532702,-0.00837 2.479435,-0.4733562 0.367572,-0.1805322 0.747924,-0.3933647 1.135848,-0.6258016 z"
       style="fill:none;stroke:#000000;stroke-width:0.52916667;stroke-dasharray:none"
       id="path37" />
    <path
       d="m 52.396802,14.573787 c -1.377457,0.975066 -2.427788,1.635686 -2.951758,1.289327 -0.402048,-0.265764 -0.494222,-1.124228 -0.514181,-2.329573 -0.04454,0.629276 -0.0807,1.245982 -0.01757,1.720308 0.06926,0.520481 0.257948,0.869278 0.637688,0.921908 0.37974,0.05263 0.950871,-0.190936 1.48363,-0.530717 0.475539,-0.303287 0.920524,-0.683316 1.362191,-1.071253 z"
       style="fill:none;stroke:#000000;stroke-width:0.52916667;stroke-dasharray:none"
       id="path42" />
    <path
       d="m 69.866536,8.6769897 c 0.174108,0.8730845 0.181451,1.4982423 -0.243912,1.7812863 -0.319517,0.212613 -0.883424,0.232494 -1.621607,0.170016 0.3401,0.04569 0.670628,0.08534 0.963249,0.102836 0.394678,0.0236 0.720463,0.0064 0.902787,-0.141593 0.182325,-0.148004 0.221029,-0.42693 0.187069,-0.8133875 -0.02764,-0.314501 -0.10294,-0.7001308 -0.187586,-1.0991578 z"
       style="fill:none;stroke:#000000;stroke-width:0.52916667;stroke-dasharray:none"
       id="path41" />
    <path
       d="m 62.495927,13.060185 c -1.145518,0.04316 -2.133586,0.243151 -2.993616,0.556038 -0.779098,0.283444 -1.453069,0.659426 -2.117183,1.044381 2.004188,-0.968559 4.129727,-1.459538 6.305041,-1.35909 1.694157,0.07823 3.418469,0.515163 5.138188,1.229899 -0.861834,-0.427638 -1.737227,-0.841416 -2.758488,-1.107426 -1.125718,-0.293219 -2.428424,-0.406962 -3.573942,-0.363802 z"
       style="fill:none;stroke:#000000;stroke-width:0.52916667;stroke-dasharray:none"
       id="path46" />
    <path
       d="m 49.716345,45.700053 c -1.603329,0.57336 -2.925942,0.78745 -3.902087,0.31936 -0.882483,-0.423176 -1.481412,-1.403656 -1.823661,-2.760038 0.112808,0.558978 0.247876,1.081088 0.431498,1.523938 0.341198,0.822886 0.849533,1.371374 1.528589,1.592151 0.679057,0.220777 1.528768,0.114022 2.318204,-0.116789 0.501748,-0.146699 0.978904,-0.343711 1.447457,-0.558622 z"
       style="fill:none;stroke:#000000;stroke-width:0.52916667;stroke-dasharray:none"
       id="path49" />
    <path
       d="m 90.642529,39.707654 c -0.05634,0.927217 -0.462051,1.599183 -1.295528,1.924947 -0.368693,0.144104 -0.820916,0.220445 -1.346171,0.243396 0.36373,0.02614 0.728262,0.03738 1.097608,-0.04599 0.439358,-0.09917 0.885572,-0.33186 1.154451,-0.626835 0.268878,-0.294975 0.360246,-0.651997 0.385506,-1.045931 0.0093,-0.145432 0.0095,-0.295975 0.0041,-0.449585 z"
       style="fill:none;stroke:#000000;stroke-width:0.52916667;stroke-dasharray:none"
       id="path48" />
    <path
       d="m 53.156962,38.497909 c -2.102956,0.34442 -3.495218,0.08251 -3.808553,-1.546676 -0.04932,-0.256457 -0.07181,-0.546807 -0.06873,-0.866097 -0.02835,0.443924 -0.04034,0.872608 0.01085,1.242301 0.0692,0.499752 0.25384,0.891884 0.645956,1.137915 0.392116,0.246031 0.991563,0.345919 1.641243,0.307475 0.504021,-0.02983 1.038399,-0.143128 1.579232,-0.274918 z"
       style="fill:none;stroke:#000000;stroke-width:0.52916667;stroke-dasharray:none"
       id="path56" />
    <path
       d="m 84.081689,32.182532 c 0.104969,0.26713 0.18031,0.516571 0.224276,0.745174 0.258222,1.34263 -0.572524,1.966268 -2.110465,2.229321 0.33747,-0.0422 0.675507,-0.08509 1.056783,-0.205155 0.387152,-0.121912 0.818649,-0.32299 1.036112,-0.655774 0.217463,-0.332784 0.220835,-0.797687 0.130225,-1.212846 -0.07036,-0.322389 -0.197292,-0.614803 -0.336931,-0.90072 z"
       style="fill:none;stroke:#000000;stroke-width:0.52916667;stroke-dasharray:none"
       id="path55" />
    <path
       d="m 64.504073,18.551839 c -0.595266,0.0027 -1.286152,0.05754 -1.892391,0.205672 -0.509888,0.124589 -0.959753,0.315202 -1.399914,0.516248 0.745717,-0.272582 1.515191,-0.462518 2.305285,-0.553455 1.048909,-0.120724 2.134058,-0.06734 3.232878,0.126608 -0.225139,-0.06358 -0.461483,-0.122992 -0.728638,-0.171566 -0.422448,-0.07681 -0.921953,-0.126207 -1.51722,-0.123507 z"
       style="fill:none;stroke:#000000;stroke-width:0.52916667;stroke-dasharray:none"
       id="path53" />
    <path
       d="m 69.034546,43.41182 c -0.06751,-0.0022 -0.133777,0.0012 -0.198438,0.01085 -0.258641,0.03842 -0.490448,0.175316 -0.671793,0.409794 -0.129102,0.166927 -0.232624,0.383471 -0.328662,0.613916 0.437656,-0.942759 1.134869,-1.250329 2.536279,-0.468189 -0.235651,-0.156562 -0.471849,-0.30628 -0.711068,-0.410827 -0.21076,-0.09211 -0.423797,-0.149034 -0.626318,-0.155547 z"
       style="fill:none;stroke:#000000;stroke-width:0.52916667;stroke-dasharray:none"
       id="path60" />
    <path
       d="m 62.109904,65.679195 c -0.60353,-0.530436 -1.032155,-1.111908 -1.240234,-1.744079 -0.288379,-0.876133 -0.153239,-1.849468 0.22996,-2.900599 -0.171834,0.395976 -0.327161,0.797808 -0.415996,1.222665 -0.119428,0.571177 -0.119415,1.183708 -0.0026,1.656229 0.116831,0.472522 0.35078,0.805056 0.696081,1.142566 0.211057,0.206296 0.463799,0.414233 0.732772,0.623218 z"
       style="fill:none;stroke:#000000;stroke-width:0.52916667;stroke-dasharray:none"
       id="path63" />
    <path
       d="m 86.447437,65.171216 c 0.06252,1.532395 -0.587987,2.599017 -1.709974,3.316076 0.211737,-0.103581 0.428493,-0.219287 0.684713,-0.428914 0.294612,-0.241038 0.640997,-0.606395 0.828373,-0.982886 0.187376,-0.376491 0.215887,-0.764136 0.219108,-1.133264 0.0023,-0.264272 -0.0081,-0.519103 -0.02222,-0.771012 z"
       style="fill:none;stroke:#000000;stroke-width:0.52916667;stroke-dasharray:none"
       id="path62" />
    <path
       d="m 82.044088,64.232255 c -0.0513,1.441801 -0.659033,2.582086 -2.085661,3.121773 -0.24895,0.09418 -0.522425,0.169784 -0.817004,0.227893 0.382695,-0.04777 0.763535,-0.106873 1.132747,-0.235127 0.441989,-0.153535 0.867008,-0.405777 1.160653,-0.787032 0.293644,-0.381256 0.455466,-0.891383 0.534851,-1.321884 0.06983,-0.378673 0.07612,-0.695828 0.07441,-1.005623 z"
       style="fill:none;stroke:#000000;stroke-width:0.52916667;stroke-dasharray:none"
       id="path68" />
    <path
       d="m 72.295329,51.194291 c -0.189271,0.0072 -0.377531,0.02908 -0.555522,0.06408 -0.355981,0.06999 -0.671951,0.192425 -0.966349,0.367936 -0.245451,0.146331 -0.47579,0.329578 -0.703833,0.518832 0.376906,-0.266807 0.76311,-0.479002 1.1498,-0.625285 0.797559,-0.301713 1.596915,-0.323262 2.381767,-0.126608 -0.239851,-0.07543 -0.483753,-0.141694 -0.743107,-0.175183 -0.183016,-0.02363 -0.373485,-0.03097 -0.562756,-0.02377 z"
       style="fill:none;stroke:#000000;stroke-width:0.52916667;stroke-dasharray:none"
       id="path66" />
    <path
       d="m 60.879488,48.865234 c 0.04592,-0.247648 0.08408,-0.493616 0.09715,-0.733805 0.0185,-0.340049 -0.01365,-0.668583 -0.201022,-0.844393 -0.187372,-0.17581 -0.529889,-0.198782 -0.862996,-0.166398 -0.217426,0.02114 -0.430741,0.06585 -0.642855,0.118856 0.611008,-0.117247 1.073422,-0.07887 1.33997,0.185001 0.270664,0.26795 0.339409,0.768414 0.269751,1.440739 z"
       style="fill:none;stroke:#000000;stroke-width:0.52916667;stroke-dasharray:none"
       id="path85" />
    <path
       d="m 59.591195,67.935905 c -1.163407,-1.018048 -1.898175,-2.31701 -2.109432,-3.972884 0.02386,0.310849 0.05784,0.626165 0.124023,0.953947 0.09785,0.484597 0.265969,0.996808 0.49196,1.42782 0.22599,0.431011 0.510043,0.780489 0.810286,1.059883 0.22113,0.205774 0.451066,0.373489 0.683163,0.531234 z"
       style="fill:none;stroke:#000000;stroke-width:0.52916667;stroke-dasharray:none"
       id="path84" />
    <path
       d="m 91.898267,64.583655 c 0.471421,1.556176 0.282993,2.90959 -0.883667,3.95428 -0.19605,0.175554 -0.41978,0.342405 -0.668693,0.500745 0.391113,-0.220661 0.772978,-0.45169 1.083654,-0.763261 0.356947,-0.357975 0.619468,-0.822013 0.738973,-1.309481 0.119506,-0.487467 0.09565,-0.998452 0.01602,-1.426786 -0.06703,-0.360543 -0.173559,-0.662582 -0.286287,-0.955497 z"
       style="fill:none;stroke:#000000;stroke-width:0.52916667;stroke-dasharray:none"
       id="path83" />
    <path
       d="m 44.895968,51.914144 c -1.762705,-0.159016 -3.208178,-0.980157 -4.262789,-2.338359 0.220003,0.326688 0.446695,0.649674 0.721403,0.946713 0.319232,0.34518 0.703175,0.654829 1.097607,0.870231 0.394433,0.215401 0.79937,0.33643 1.232483,0.40876 0.38793,0.06479 0.798299,0.09078 1.211296,0.112655 z"
       style="fill:none;stroke:#000000;stroke-width:0.52916667;stroke-dasharray:none"
       id="path86" />
    <path
       d="m 77.99989,44.181799 c -0.175783,0.02683 -0.35065,0.05509 -0.500744,0.125574 -0.156151,0.07333 -0.285419,0.192354 -0.359152,0.322978 -0.07373,0.130624 -0.09192,0.272861 -0.08578,0.402042 0.006,0.127247 0.03568,0.241875 0.06563,0.356051 -0.09173,-0.515715 0.06952,-0.895847 0.557072,-1.103809 0.09544,-0.04071 0.203458,-0.07469 0.322978,-0.102836 z"
       style="fill:none;stroke:#000000;stroke-width:0.52916667;stroke-dasharray:none"
       id="path82" />
    <path
       d="m 95.221578,42.184505 c -0.216043,0.653683 -0.577672,1.197693 -1.101742,1.605587 -0.271342,0.211191 -0.586496,0.385882 -0.93741,0.529167 0.217521,-0.06233 0.429506,-0.131065 0.620634,-0.223759 0.259115,-0.125668 0.47975,-0.295416 0.681612,-0.510563 0.201862,-0.215147 0.3849,-0.475485 0.508496,-0.731739 0.108555,-0.225071 0.171298,-0.447233 0.22841,-0.668693 z"
       style="fill:none;stroke:#000000;stroke-width:0.52916667;stroke-dasharray:none"
       id="path81" />
    <path
       d="m 88.631283,47.727319 c -0.332875,0.09395 -0.648816,0.187687 -0.905372,0.281637 -0.359223,0.131547 -0.601991,0.263264 -0.720886,0.564307 -0.118895,0.301042 -0.11395,0.771581 -0.0052,1.209228 0.07861,0.316252 0.211364,0.615194 0.359151,0.909505 -0.308083,-0.829715 -0.365585,-1.524168 -0.06976,-2.036568 0.24497,-0.424318 0.713171,-0.720424 1.342037,-0.928109 z"
       style="fill:none;stroke:#000000;stroke-width:0.52916667;stroke-dasharray:none"
       id="path99" />
    <path
       d="m 104.07633,42.167452 c 0.15915,0.546602 0.24193,1.047469 0.23823,1.497066 -0.0104,1.260539 -0.67547,2.069904 -1.73891,2.591573 0.37446,-0.150834 0.73402,-0.314772 1.03198,-0.534334 0.39,-0.287386 0.67393,-0.669782 0.81287,-1.090373 0.13894,-0.420591 0.13297,-0.879032 0.0222,-1.366841 -0.0804,-0.354026 -0.21576,-0.72343 -0.36639,-1.097091 z"
       style="fill:none;stroke:#000000;stroke-width:0.52916667;stroke-dasharray:none"
       id="path98" />
    <path
       d="m 98.155249,68.241829 c 0.01246,0.104826 0.02138,0.20843 0.02687,0.310576 0.09159,1.702755 -0.839302,2.991847 -2.464966,3.964616 0.46634,-0.227918 0.928777,-0.460634 1.323433,-0.778764 0.420035,-0.338587 0.763152,-0.773978 0.965316,-1.222665 0.202165,-0.448687 0.263218,-0.911076 0.252698,-1.355472 -0.0074,-0.312985 -0.05006,-0.616893 -0.103353,-0.918291 z"
       style="fill:none;stroke:#000000;stroke-width:0.52916667;stroke-dasharray:none"
       id="path103" />
    <path
       d="m 55.351143,56.483891 c 0.03698,-0.237621 0.06388,-0.469628 0.06201,-0.684196 -0.0029,-0.329913 -0.07417,-0.619127 -0.26665,-0.798401 -0.192482,-0.179274 -0.506246,-0.248443 -0.823723,-0.253215 -0.287044,-0.0043 -0.577014,0.04391 -0.86713,0.09715 0.819711,-0.09162 1.413931,-0.01155 1.699638,0.397909 0.193008,0.27661 0.24285,0.702215 0.195853,1.240751 z"
       style="fill:none;stroke:#000000;stroke-width:0.52916667;stroke-dasharray:none"
       id="path100" />
    <path
       d="m 39.811007,18.099154 c 0.188858,-0.41753 0.372855,-0.859487 0.51573,-1.498617 0.162667,-0.72766 0.272272,-1.711291 0.230994,-2.506307 -0.04128,-0.795016 -0.233496,-1.400955 -0.476457,-1.993677 -0.202419,-0.493817 -0.440057,-0.978582 -0.683679,-1.461409 0.471881,1.065789 0.798908,2.147441 0.914673,3.240629 0.152921,1.444051 -0.05661,2.839567 -0.501261,4.219381 z"
       style="fill:none;stroke:#000000;stroke-width:0.52916667;stroke-dasharray:none"
       id="path101" />
    <path
       d="m 40.39495,70.345577 c -0.04483,0.47174 -0.06975,0.943156 -0.01447,1.414901 0.07386,0.630262 0.290671,1.260599 0.640271,1.797306 0.3496,0.536707 0.832422,0.979705 1.467611,1.353923 0.429981,0.253321 0.929593,0.475256 1.452107,0.686779 -2.940904,-1.463651 -3.560369,-3.319447 -3.54552,-5.252909 z"
       style="fill:none;stroke:#000000;stroke-width:0.52916667;stroke-dasharray:none"
       id="path112" />
    <path
       d="m 102.86194,74.019255 c 0.48169,-0.25072 0.95041,-0.516453 1.34824,-0.86403 0.48635,-0.424927 0.86632,-0.972114 1.09037,-1.525489 0.22404,-0.553375 0.29191,-1.112595 0.23771,-1.724442 -0.0331,-0.374191 -0.11176,-0.768001 -0.20826,-1.169438 0.31062,1.940584 -0.23914,3.776591 -2.46806,5.283399 z"
       style="fill:none;stroke:#000000;stroke-width:0.52916667;stroke-dasharray:none"
       id="path113" />
    <path
       d="m 99.953589,58.317371 c -0.260839,-0.58623 -0.429325,-1.128097 -0.460954,-1.613855 -0.0708,-1.087331 0.542315,-1.893044 1.558045,-2.651001 -0.39113,0.247182 -0.76968,0.496599 -1.060401,0.762227 -0.33895,0.309691 -0.558523,0.641539 -0.660941,1.009758 -0.102419,0.368218 -0.08747,0.772793 0.04909,1.219047 0.122747,0.401117 0.343944,0.835835 0.575159,1.273824 z"
       style="fill:none;stroke:#000000;stroke-width:0.52916667;stroke-dasharray:none"
       id="path114" />
    <path
       d="m 39.244633,62.239612 c 0.490501,0.500673 0.878558,1.014255 1.130164,1.557527 0.364541,0.787128 0.442236,1.636536 0.403592,2.516643 0.04184,-0.375479 0.07828,-0.741296 0.09043,-1.067119 0.01599,-0.428644 -0.0098,-0.787752 -0.157096,-1.166853 -0.147284,-0.379102 -0.415949,-0.778 -0.727088,-1.12758 -0.229371,-0.257711 -0.481804,-0.488751 -0.740006,-0.712618 z"
       style="fill:none;stroke:#000000;stroke-width:0.52916667;stroke-dasharray:none"
       id="path111" />
    <path
       d="m 106.14649,19.110461 c -0.40591,1.100923 -0.92061,1.854563 -1.63452,2.109949 -0.70464,0.252068 -1.60327,0.01882 -2.60501,-0.577226 0.34955,0.238381 0.70636,0.471119 1.13688,0.645956 0.47704,0.19373 1.04466,0.31608 1.51877,0.163814 0.4741,-0.152266 0.85439,-0.579576 1.11569,-1.064534 0.21438,-0.397852 0.34855,-0.834235 0.46819,-1.277959 z"
       style="fill:none;stroke:#000000;stroke-width:0.52916667;stroke-dasharray:none"
       id="path117" />
    <path
       d="m 110.0739,29.621965 c -0.36581,1.409658 -0.88226,2.390599 -1.6614,2.768306 -0.80111,0.38836 -1.88027,0.139125 -3.13624,-0.589111 0.35122,0.23722 0.7121,0.455496 1.09296,0.635103 0.74557,0.351602 1.56783,0.554639 2.14819,0.355534 0.58035,-0.199106 0.91909,-0.800592 1.16478,-1.546159 0.16224,-0.492292 0.28391,-1.047265 0.39171,-1.623673 z"
       style="fill:none;stroke:#000000;stroke-width:0.52916667;stroke-dasharray:none"
       id="path120" />
    <path
       d="m 133.52053,30.904057 c -3.96072,0.288844 -6.74434,2.585668 -7.64449,8.094596 -2.22719,13.63035 7.07521,46.924125 0.63717,59.222742 -0.2571,0.58188 -0.51835,1.150817 -0.8046,1.642277 -0.34477,0.591948 -0.72589,1.071838 -1.24231,1.499648 -0.51642,0.4278 -1.16783,0.80326 -1.99522,1.08727 -0.65256,0.22399 -1.41461,0.3909 -2.19935,0.54571 -12.16731,2.849 -35.969503,-10.406067 -46.971295,-9.272305 0,0 0,0 0,0 -0.303041,0.03123 -0.596426,0.07291 -0.879532,0.126607 -3.428288,0.650293 -5.357329,2.9954 -6.415113,6.365508 0,0 0,0 0,0 -2.655102,8.45916 0.179602,23.37867 -1.425236,34.17982 0,0 0,0 0,0 1.604838,-10.80115 -1.229866,-25.72066 1.425236,-34.17982 0.186175,-0.837143 0.391679,-1.672292 0.77463,-2.489259 0.429733,-0.91677 1.082985,-1.81064 1.885156,-2.475301 0.802171,-0.66466 1.753035,-1.100014 2.709912,-1.317749 0.639609,-0.145541 1.281935,-0.193806 1.924947,-0.209806 12.577789,-1.296172 41.886335,16.214355 51.412365,6.967015 0.704,-0.6834 1.29968,-1.513067 1.80041,-2.469615 0,0 0,0 0,0 6.43804,-12.298617 -2.86436,-45.592392 -0.63717,-59.222742 0.90015,-5.508928 3.68377,-7.805752 7.64449,-8.094596 z"
       style="fill:none;stroke:#ff0000;stroke-width:0.52916667;stroke-dasharray:none"
       id="path151" />
    <path
       d="m 58.311686,85.334843 c -1.116945,-0.01629 -2.232638,-0.03071 -3.272151,0.09973 -1.051247,0.13192 -2.024369,0.412279 -2.832386,0.927592 -0.808016,0.515314 -1.451197,1.265656 -1.863452,2.036569 -0.405865,0.758964 -0.587728,1.537925 -0.766361,2.317171 0.871777,-3.006491 2.918394,-4.921879 7.377844,-5.309754 0.430256,-0.03742 0.882947,-0.06081 1.356506,-0.07131 z"
       style="fill:none;stroke:#000000;stroke-width:0.52916667;stroke-dasharray:none"
       id="path147" />
    <path
       d="m 141.99392,4.9506022 c -2.71923,-0.087049 -5.28431,0.050926 -7.64398,0.4888591 0,0 0,0 0,0 -4.90103,0.909583 -8.91557,3.1134802 -11.58379,7.2832767 0,0 0,0 0,0 -0.58625,0.916165 -1.10772,1.927007 -1.55908,3.040124 -5.85401,14.436759 0.0478,46.036344 -7.2471,61.638615 -0.32351,0.797342 -0.67852,1.610059 -1.21181,2.510958 -0.64723,1.093381 -1.55733,2.316675 -2.54558,3.290238 -0.98824,0.973564 -2.05439,1.697553 -3.09077,2.2009 -0.94877,0.460797 -1.87227,0.736653 -2.79363,0.996838 -13.932747,5.34937 -37.071899,-1.889356 -47.363,-0.994255 -12.289611,1.068928 -6.256186,13.737456 -7.800041,28.879374 0,0 0,0 0,0 0.983646,-9.64747 -1.10852,-18.29065 0.422197,-23.56962 0.178633,-0.779246 0.360496,-1.558207 0.766361,-2.317171 0.412255,-0.770913 1.055436,-1.521255 1.863452,-2.036569 0.808017,-0.515313 1.781139,-0.795672 2.832386,-0.927592 1.039513,-0.130447 2.155206,-0.116023 3.272151,-0.09973 10.853279,-0.240706 32.656255,6.191288 46.006494,1.065568 0,0 0,0 0,0 2.70571,-1.038836 5.06397,-2.552689 6.91379,-4.692737 11.37528,-13.159981 3.51312,-50.008715 9.9751,-65.944812 0.45136,-1.113117 0.97283,-2.123959 1.55908,-3.040124 0.57153,-1.049881 1.16569,-2.060386 1.86345,-2.89078 0.8945,-1.0645291 1.95912,-1.8335406 3.14193,-2.4840861 1.1828,-0.6505455 2.48363,-1.1826003 3.66644,-1.4856974 1.03478,-0.265163 1.97906,-0.3549 2.91197,-0.4227132 2.35967,-0.4379329 4.92475,-0.5759084 7.64398,-0.4888591 z m -9.58236,12.2137248 c 1.03287,-0.05988 1.82663,0.03473 2.55746,0.170015 0,0 0,0 0,0 0,0 0,0 0,0 -5.45828,-0.410176 -9.57756,1.702688 -11.27166,8.382435 -3.43615,13.54856 3.10354,45.884587 -3.65507,60.311564 -0.22926,0.54702 -0.46636,1.085439 -0.71934,1.606103 -0.50665,1.042728 -1.07675,2.01461 -1.9513,2.884062 -0.87456,0.869451 -2.05351,1.636339 -3.13935,2.108915 -0.98006,0.426537 -1.88401,0.613603 -2.7807,0.777214 -13.257459,3.787219 -36.221743,-6.474151 -47.132012,-4.256071 -0.405638,0.08247 -0.794898,0.181922 -1.167887,0.298173 0,0 0,0 0,0 -3.893892,1.213618 -6.045507,4.229274 -7.227983,8.229988 0,0 0,0 0,0 -2.300375,7.782945 -0.932417,19.294595 -1.585433,28.522295 0,0 0,0 0,0 0.653016,-9.2277 -0.714942,-20.73935 1.585433,-28.522295 0.202312,-0.944864 0.429653,-1.88651 0.783415,-2.811198 0.441014,-1.152755 1.078441,-2.279268 1.894975,-3.117639 0.816533,-0.83837 1.812072,-1.388765 2.816365,-1.773018 0.575473,-0.220182 1.153668,-0.385697 1.733228,-0.528133 0.372989,-0.116251 0.762249,-0.215706 1.167887,-0.298173 10.910269,-2.21808 33.874553,8.04329 47.132012,4.256071 0,0 0,0 0,0 2.39173,-0.683241 4.46725,-1.824086 6.09936,-3.57756 10.67364,-11.467275 2.37007,-49.149975 6.14071,-64.088078 0,0 0,0 0,0 0.002,-0.0075 0.004,-0.01473 0.006,-0.02222 0.30994,-1.373484 0.64674,-2.728713 1.19372,-3.940328 0.62896,-1.39318 1.53547,-2.596677 2.90835,-3.381189 1.37289,-0.784512 3.21218,-1.149773 4.61213,-1.230933 z"
       style="fill:none;stroke:#ff0000;stroke-width:0.52916667;stroke-dasharray:none"
       id="path144" />
    <path
       d="m 134.34994,5.4394613 c -0.93291,0.067813 -1.87719,0.1575502 -2.91197,0.4227132 -1.18281,0.3030971 -2.48364,0.8351519 -3.66644,1.4856974 -1.18281,0.6505455 -2.24743,1.419557 -3.14193,2.4840861 -0.69776,0.830394 -1.29192,1.840899 -1.86345,2.89078 2.66822,-4.1697965 6.68276,-6.3736937 11.58379,-7.2832767 z"
       style="fill:none;stroke:#000000;stroke-width:0.52916667;stroke-dasharray:none"
       id="path145" />
    <path
       d="m 113.95997,77.401477 c -0.75762,1.620383 -1.65776,3.068049 -2.728,4.306197 -1.84982,2.140048 -4.20808,3.653901 -6.91379,4.692737 0.92136,-0.260185 1.84486,-0.536041 2.79363,-0.996838 1.03638,-0.503347 2.10253,-1.227336 3.09077,-2.2009 0.98825,-0.973563 1.89835,-2.196857 2.54558,-3.290238 0.53329,-0.900899 0.8883,-1.713616 1.21181,-2.510958 z"
       style="fill:none;stroke:#000000;stroke-width:0.52916667;stroke-dasharray:none"
       id="path146" />
    <path
       d="m 73.300435,93.723995 c -0.643012,0.016 -1.285338,0.06426 -1.924947,0.209806 -0.956877,0.217735 -1.907741,0.653089 -2.709912,1.317749 -0.802171,0.664661 -1.455423,1.558531 -1.885156,2.475301 -0.382951,0.816967 -0.588455,1.652116 -0.77463,2.489259 1.057784,-3.370108 2.986825,-5.715215 6.415113,-6.365508 0.283106,-0.0537 0.576491,-0.09538 0.879532,-0.126607 z"
       style="fill:none;stroke:#000000;stroke-width:0.52916667;stroke-dasharray:none"
       id="path153" />
    <path
       d="m 63.151701,89.446737 c -0.57956,0.142436 -1.157755,0.307951 -1.733228,0.528133 -1.004293,0.384253 -1.999832,0.934648 -2.816365,1.773018 -0.816534,0.838371 -1.453961,1.964884 -1.894975,3.117639 -0.353762,0.924688 -0.581103,1.866334 -0.783415,2.811198 1.182476,-4.000714 3.334091,-7.01637 7.227983,-8.229988 z"
       style="fill:none;stroke:#000000;stroke-width:0.52916667;stroke-dasharray:none"
       id="path150" />
    <path
       d="m 132.41156,17.164327 c -1.39995,0.08116 -3.23924,0.446421 -4.61213,1.230933 -1.37288,0.784512 -2.27939,1.988009 -2.90835,3.381189 -0.54698,1.211615 -0.88378,2.566844 -1.19372,3.940328 1.6941,-6.679747 5.81338,-8.792611 11.27166,-8.382435 -0.73083,-0.135282 -1.52459,-0.229895 -2.55746,-0.170015 z"
       style="fill:none;stroke:#000000;stroke-width:0.52916667;stroke-dasharray:none"
       id="path148" />
    <path
       d="m 120.04229,86.028341 c -0.68551,1.463279 -1.50793,2.742222 -2.49133,3.798734 -1.63211,1.753474 -3.70763,2.894319 -6.09936,3.57756 0.89669,-0.163611 1.80064,-0.350677 2.7807,-0.777214 1.08584,-0.472576 2.26479,-1.239464 3.13935,-2.108915 0.87455,-0.869452 1.44465,-1.841334 1.9513,-2.884062 0.25298,-0.520664 0.49008,-1.059083 0.71934,-1.606103 z"
       style="fill:none;stroke:#000000;stroke-width:0.52916667;stroke-dasharray:none"
       id="path149" />
    <path
       d="m 126.51321,98.221395 c -0.50073,0.956548 -1.09641,1.786215 -1.80041,2.469615 -1.19361,1.15869 -2.69812,1.89717 -4.44107,2.30529 0.78474,-0.15481 1.54679,-0.32172 2.19935,-0.54571 0.82739,-0.28401 1.4788,-0.65947 1.99522,-1.08727 0.51642,-0.42781 0.89754,-0.9077 1.24231,-1.499648 0.28625,-0.49146 0.5475,-1.060397 0.8046,-1.642277 z"
       style="fill:none;stroke:#000000;stroke-width:0.52916667;stroke-dasharray:none"
       id="path152" />
  </g>
</svg>
