<?xml version="1.0" encoding="UTF-8" standalone="no"?>
<!-- Created with Inkscape (http://www.inkscape.org/) -->

<svg
   width="16in"
   height="20in"
   viewBox="0 0 406.4 508"
   version="1.1"
   id="svg1"
   xml:space="preserve"
   sodipodi:docname="finalCut.svg"
   inkscape:version="1.4.2 (ebf0e940, 2025-05-08)"
   xmlns:inkscape="http://www.inkscape.org/namespaces/inkscape"
   xmlns:sodipodi="http://sodipodi.sourceforge.net/DTD/sodipodi-0.dtd"
   xmlns="http://www.w3.org/2000/svg"
   xmlns:svg="http://www.w3.org/2000/svg"><sodipodi:namedview
     id="namedview1"
     pagecolor="#ffffff"
     bordercolor="#000000"
     borderopacity="0.25"
     inkscape:showpageshadow="2"
     inkscape:pageopacity="0.0"
     inkscape:pagecheckerboard="0"
     inkscape:deskcolor="#d1d1d1"
     inkscape:document-units="in"
     showgrid="false"
     inkscape:zoom="0.18901643"
     inkscape:cx="690.41615"
     inkscape:cy="973.46032"
     inkscape:window-width="1472"
     inkscape:window-height="891"
     inkscape:window-x="0"
     inkscape:window-y="37"
     inkscape:window-maximized="1"
     inkscape:current-layer="layer3" /><defs
     id="defs1"><inkscape:path-effect
       effect="bspline"
       id="path-effect372"
       is_visible="true"
       lpeversion="1.3"
       weight="33.333333"
       steps="2"
       helper_size="0"
       apply_no_weight="true"
       apply_with_weight="true"
       only_selected="false"
       uniform="false" /><inkscape:path-effect
       effect="bspline"
       id="path-effect371"
       is_visible="true"
       lpeversion="1.3"
       weight="33.333333"
       steps="2"
       helper_size="0"
       apply_no_weight="true"
       apply_with_weight="true"
       only_selected="false"
       uniform="false" /><inkscape:path-effect
       effect="bspline"
       id="path-effect370"
       is_visible="true"
       lpeversion="1.3"
       weight="33.333333"
       steps="2"
       helper_size="0"
       apply_no_weight="true"
       apply_with_weight="true"
       only_selected="false"
       uniform="false" /><inkscape:path-effect
       effect="bspline"
       id="path-effect369"
       is_visible="true"
       lpeversion="1.3"
       weight="33.333333"
       steps="2"
       helper_size="0"
       apply_no_weight="true"
       apply_with_weight="true"
       only_selected="false"
       uniform="false" /><inkscape:path-effect
       effect="bspline"
       id="path-effect368"
       is_visible="true"
       lpeversion="1.3"
       weight="33.333333"
       steps="2"
       helper_size="0"
       apply_no_weight="true"
       apply_with_weight="true"
       only_selected="false"
       uniform="false" /><inkscape:path-effect
       effect="bspline"
       id="path-effect367"
       is_visible="true"
       lpeversion="1.3"
       weight="33.333333"
       steps="2"
       helper_size="0"
       apply_no_weight="true"
       apply_with_weight="true"
       only_selected="false"
       uniform="false" /><inkscape:path-effect
       effect="bspline"
       id="path-effect366"
       is_visible="true"
       lpeversion="1.3"
       weight="33.333333"
       steps="2"
       helper_size="0"
       apply_no_weight="true"
       apply_with_weight="true"
       only_selected="false"
       uniform="false" /><inkscape:path-effect
       effect="bspline"
       id="path-effect365"
       is_visible="true"
       lpeversion="1.3"
       weight="33.333333"
       steps="2"
       helper_size="0"
       apply_no_weight="true"
       apply_with_weight="true"
       only_selected="false"
       uniform="false" /><inkscape:path-effect
       effect="bspline"
       id="path-effect364"
       is_visible="true"
       lpeversion="1.3"
       weight="33.333333"
       steps="2"
       helper_size="0"
       apply_no_weight="true"
       apply_with_weight="true"
       only_selected="false"
       uniform="false" /><inkscape:path-effect
       effect="bspline"
       id="path-effect59"
       is_visible="true"
       lpeversion="1.3"
       weight="33.333333"
       steps="2"
       helper_size="0"
       apply_no_weight="true"
       apply_with_weight="true"
       only_selected="false"
       uniform="false" /><inkscape:path-effect
       effect="bspline"
       id="path-effect251"
       is_visible="true"
       lpeversion="1.3"
       weight="33.333333"
       steps="2"
       helper_size="0"
       apply_no_weight="true"
       apply_with_weight="true"
       only_selected="false"
       uniform="false" /><inkscape:path-effect
       effect="bspline"
       id="path-effect34"
       is_visible="true"
       lpeversion="1.3"
       weight="33.333333"
       steps="2"
       helper_size="0"
       apply_no_weight="true"
       apply_with_weight="true"
       only_selected="false"
       uniform="false" /><inkscape:path-effect
       effect="bspline"
       id="path-effect32"
       is_visible="true"
       lpeversion="1.3"
       weight="33.333333"
       steps="2"
       helper_size="0"
       apply_no_weight="true"
       apply_with_weight="true"
       only_selected="false"
       uniform="false" /><inkscape:path-effect
       effect="bspline"
       id="path-effect30"
       is_visible="true"
       lpeversion="1.3"
       weight="33.333333"
       steps="2"
       helper_size="0"
       apply_no_weight="true"
       apply_with_weight="true"
       only_selected="false"
       uniform="false" /><inkscape:path-effect
       effect="bspline"
       id="path-effect28"
       is_visible="true"
       lpeversion="1.3"
       weight="33.333333"
       steps="2"
       helper_size="0"
       apply_no_weight="true"
       apply_with_weight="true"
       only_selected="false"
       uniform="false" /><inkscape:path-effect
       effect="bspline"
       id="path-effect26"
       is_visible="true"
       lpeversion="1.3"
       weight="33.333333"
       steps="2"
       helper_size="0"
       apply_no_weight="true"
       apply_with_weight="true"
       only_selected="false"
       uniform="false" /><inkscape:path-effect
       effect="bspline"
       id="path-effect21"
       is_visible="true"
       lpeversion="1.3"
       weight="33.333333"
       steps="2"
       helper_size="0"
       apply_no_weight="true"
       apply_with_weight="true"
       only_selected="false"
       uniform="false" /><inkscape:path-effect
       effect="bspline"
       id="path-effect19"
       is_visible="true"
       lpeversion="1.3"
       weight="33.333333"
       steps="2"
       helper_size="0"
       apply_no_weight="true"
       apply_with_weight="true"
       only_selected="false"
       uniform="false" /><inkscape:path-effect
       effect="bspline"
       id="path-effect17"
       is_visible="true"
       lpeversion="1.3"
       weight="33.333333"
       steps="2"
       helper_size="0"
       apply_no_weight="true"
       apply_with_weight="true"
       only_selected="false"
       uniform="false" /><inkscape:path-effect
       effect="bspline"
       id="path-effect16"
       is_visible="true"
       lpeversion="1.3"
       weight="33.333333"
       steps="2"
       helper_size="0"
       apply_no_weight="true"
       apply_with_weight="true"
       only_selected="false"
       uniform="false" /><inkscape:path-effect
       effect="bspline"
       id="path-effect15"
       is_visible="true"
       lpeversion="1.3"
       weight="33.333333"
       steps="2"
       helper_size="0"
       apply_no_weight="true"
       apply_with_weight="true"
       only_selected="false"
       uniform="false" /><inkscape:path-effect
       effect="bspline"
       id="path-effect14"
       is_visible="true"
       lpeversion="1.3"
       weight="33.333333"
       steps="2"
       helper_size="0"
       apply_no_weight="true"
       apply_with_weight="true"
       only_selected="false"
       uniform="false" /><inkscape:path-effect
       effect="bspline"
       id="path-effect12"
       is_visible="true"
       lpeversion="1.3"
       weight="33.333333"
       steps="2"
       helper_size="0"
       apply_no_weight="true"
       apply_with_weight="true"
       only_selected="false"
       uniform="false" /><inkscape:path-effect
       effect="bspline"
       id="path-effect11"
       is_visible="true"
       lpeversion="1.3"
       weight="33.333333"
       steps="2"
       helper_size="0"
       apply_no_weight="true"
       apply_with_weight="true"
       only_selected="false"
       uniform="false" /><inkscape:path-effect
       effect="bspline"
       id="path-effect10"
       is_visible="true"
       lpeversion="1.3"
       weight="33.333333"
       steps="2"
       helper_size="0"
       apply_no_weight="true"
       apply_with_weight="true"
       only_selected="false"
       uniform="false" /><inkscape:path-effect
       effect="bspline"
       id="path-effect9"
       is_visible="true"
       lpeversion="1.3"
       weight="33.333333"
       steps="2"
       helper_size="0"
       apply_no_weight="true"
       apply_with_weight="true"
       only_selected="false"
       uniform="false" /><inkscape:path-effect
       effect="bspline"
       id="path-effect7"
       is_visible="true"
       lpeversion="1.3"
       weight="33.333333"
       steps="2"
       helper_size="0"
       apply_no_weight="true"
       apply_with_weight="true"
       only_selected="false"
       uniform="false" /><inkscape:path-effect
       effect="bspline"
       id="path-effect6"
       is_visible="true"
       lpeversion="1.3"
       weight="33.333333"
       steps="2"
       helper_size="0"
       apply_no_weight="true"
       apply_with_weight="true"
       only_selected="false"
       uniform="false" /><inkscape:path-effect
       effect="bspline"
       id="path-effect4"
       is_visible="true"
       lpeversion="1.3"
       weight="33.333333"
       steps="2"
       helper_size="0"
       apply_no_weight="true"
       apply_with_weight="true"
       only_selected="false"
       uniform="false" /><inkscape:path-effect
       effect="bspline"
       id="path-effect3"
       is_visible="true"
       lpeversion="1.3"
       weight="33.333333"
       steps="2"
       helper_size="0"
       apply_no_weight="true"
       apply_with_weight="true"
       only_selected="false"
       uniform="false" /><inkscape:path-effect
       effect="bspline"
       id="path-effect2"
       is_visible="true"
       lpeversion="1.3"
       weight="33.333333"
       steps="2"
       helper_size="0"
       apply_no_weight="true"
       apply_with_weight="true"
       only_selected="false"
       uniform="false" /><clipPath
       clipPathUnits="userSpaceOnUse"
       id="clipPath1"><rect
         style="fill:none;stroke:#ff0000;stroke-width:0.352777"
         id="rect2"
         width="127.36545"
         height="156.15353"
         x="295.73212"
         y="123.43979" /></clipPath><inkscape:path-effect
       effect="bspline"
       id="path-effect17-7"
       is_visible="true"
       lpeversion="1.3"
       weight="33.333333"
       steps="2"
       helper_size="0"
       apply_no_weight="true"
       apply_with_weight="true"
       only_selected="false"
       uniform="false" /><inkscape:path-effect
       effect="bspline"
       id="path-effect17-3"
       is_visible="true"
       lpeversion="1.3"
       weight="33.333333"
       steps="2"
       helper_size="0"
       apply_no_weight="true"
       apply_with_weight="true"
       only_selected="false"
       uniform="false" /><inkscape:path-effect
       effect="bspline"
       id="path-effect17-0"
       is_visible="true"
       lpeversion="1.3"
       weight="33.333333"
       steps="2"
       helper_size="0"
       apply_no_weight="true"
       apply_with_weight="true"
       only_selected="false"
       uniform="false" /><inkscape:path-effect
       effect="fill_between_many"
       method="originald"
       linkedpaths="#path462,0,1|#path461,0,1"
       id="path-effect504"
       is_visible="true"
       lpeversion="0"
       join="true"
       close="true"
       autoreverse="true" /></defs><g
     inkscape:label="Layer 1"
     inkscape:groupmode="layer"
     id="layer1" /><g
     inkscape:groupmode="layer"
     id="layer2"
     inkscape:label="Layer 2"
     style="display:inline" /><g
     inkscape:groupmode="layer"
     id="layer4"
     inkscape:label="Layer 4"
     style="display:inline;opacity:1;stroke:#000000;stroke-opacity:1" /><g
     inkscape:groupmode="layer"
     id="layer3"
     inkscape:label="Layer 3"
     style="display:inline"><g
       id="g1"
       transform="translate(-50.800003,50.800002)"><path
         id="path311"
         style="display:inline;fill:none;stroke:#ff0000;stroke-width:0.79375;stroke-dasharray:none"
         d="m 358.21857,76.824425 c -3.09004,-7.42483 -6.47062,-14.99871 -9.70201,-22.40168 -1.89446,-4.34012 -3.73763,-8.62148 -5.47815,-12.82315"
         sodipodi:nodetypes="csc" /><path
         id="path309"
         style="display:inline;fill:none;stroke:#ff0000;stroke-width:0.79375;stroke-dasharray:none"
         d="m 285.44906,145.86336 c 6.74348,-0.31367 13.71027,-0.38651 20.80064,-0.50608 4.65906,-0.0786 9.37145,-0.1773 14.01225,-0.37194"
         sodipodi:nodetypes="csc" /><path
         id="path307"
         style="display:inline;fill:none;stroke:#000000;stroke-width:0.79375;stroke-dasharray:none"
         d="m 210.64142,198.16917 2e-4,-4.3e-4"
         sodipodi:nodetypes="cc" /><path
         id="path306"
         style="display:inline;fill:none;stroke:#ff0000;stroke-width:0.79375;stroke-dasharray:none"
         d="m 193.24747,240.34379 c 1.49738,-3.63883 2.9862,-7.36665 4.47957,-11.12551 4.13994,-10.42039 8.3148,-21.07922 12.91438,-31.04911"
         sodipodi:nodetypes="csc" /><path
         id="path301"
         style="display:inline;fill:none;stroke:#ff0000;stroke-width:0.79375;stroke-dasharray:none"
         d="m 423.06631,117.78463 c -1.21112,-4.46593 -2.47419,-8.92325 -3.73277,-13.30829 -5.05463,-17.611015 -10.0367,-34.056225 -12.31401,-48.792535"
         sodipodi:nodetypes="csc" /><path
         id="path300"
         style="display:inline;fill:none;stroke:#000000;stroke-width:0.79375;stroke-dasharray:none"
         d="m 423.06644,117.78512 -1.3e-4,-4.9e-4"
         sodipodi:nodetypes="cc" /><path
         id="path298"
         style="display:inline;fill:none;stroke:#ff0000;stroke-width:0.79375;stroke-dasharray:none"
         d="m 324.96319,196.59901 c 9.83069,-0.5362 19.99624,-0.24759 30.17968,0.24575 7.75678,0.37576 15.52385,0.87032 22.9678,1.1365"
         sodipodi:nodetypes="csc" /><path
         id="path296"
         style="display:inline;fill:none;stroke:#ff0000;stroke-width:0.79375;stroke-dasharray:none"
         d="m 218.87657,312.48115 c 1.10695,-2.37422 2.20061,-4.76184 3.28081,-7.1551 6.88204,-15.24761 13.21794,-30.72424 19.91468,-44.89684"
         sodipodi:nodetypes="csc" /><path
         id="path294"
         style="display:inline;fill:none;stroke:#ff0000;stroke-width:0.79375;stroke-dasharray:none"
         d="m 70.065427,335.63346 c 6.217827,4.11942 12.242848,8.40111 18.004183,12.55356 8.832345,6.36584 17.04495,12.42794 24.75748,17.71354"
         sodipodi:nodetypes="csc" /><path
         id="path290"
         style="display:inline;fill:none;stroke:#000000;stroke-width:0.79375;stroke-dasharray:none"
         d="m 365.74112,255.38181 -4.7e-4,-2e-5"
         sodipodi:nodetypes="cc" /><path
         id="path289"
         style="display:inline;fill:none;stroke:#ff0000;stroke-width:0.79375;stroke-dasharray:none"
         d="m 443.38123,263.85122 c -4.81106,-0.62824 -9.62118,-1.26538 -14.43023,-1.91258 -21.85163,-2.94076 -43.68005,-6.08918 -63.20988,-6.55683"
         sodipodi:nodetypes="csc" /><path
         id="path288"
         style="display:inline;fill:none;stroke:#ff0000;stroke-width:0.79375;stroke-dasharray:none"
         d="m 396.14025,302.20443 c 14.46736,2.5674 30.20191,6.95572 45.50894,11.13682 0.57795,0.15787 1.1553,0.31544 1.73204,0.47272"
         sodipodi:nodetypes="csc" /><path
         id="path285"
         style="display:inline;fill:none;stroke:#ff0000;stroke-width:0.79375;stroke-dasharray:none"
         d="m 436.81863,364.85882 c 2.15994,0.91791 4.34949,1.87124 6.5626,2.85184"
         sodipodi:nodetypes="cc" /><path
         id="path283"
         style="display:inline;fill:none;stroke:#000000;stroke-width:0.79375;stroke-dasharray:none"
         d="m 375.3142,405.80794 10e-6,-5.2e-4"
         sodipodi:nodetypes="cc" /><path
         id="path282"
         style="display:inline;fill:none;stroke:#ff0000;stroke-width:0.79375;stroke-dasharray:none"
         d="m 373.46525,437.82888 c 1.5804,-9.82379 1.73597,-19.91459 1.8302,-29.96671 0.006,-0.68507 0.0126,-1.36995 0.0188,-2.05423"
         sodipodi:nodetypes="csc" /><path
         id="path275"
         style="display:inline;fill:none;stroke:#000000;stroke-width:0.79375;stroke-dasharray:none"
         d="m 185.63281,148.63033 2.1e-4,-3.9e-4"
         sodipodi:nodetypes="cc" /><path
         id="path272"
         style="display:inline;fill:none;stroke:#000000;stroke-width:0.79375;stroke-dasharray:none"
         d="m 126.29741,172.31518 2.1e-4,4.5e-4"
         sodipodi:nodetypes="cc" /><path
         id="path269"
         style="display:inline;fill:none;stroke:#000000;stroke-width:0.79375;stroke-dasharray:none"
         d="m 274.75446,10.099625 -2e-4,-4.1e-4"
         sodipodi:nodetypes="cc" /><path
         id="path260"
         style="display:inline;fill:none;stroke:#ff0000;stroke-width:0.79375;stroke-dasharray:none"
         d="m 372.77452,86.018495 c -2.53605,-6.93956 -5.3946,-14.04435 -8.32055,-21.08242 -2.8852,-6.94003 -5.83591,-13.81514 -8.56721,-20.50816"
         sodipodi:nodetypes="csc" /><path
         id="path258"
         style="display:inline;fill:none;stroke:#ff0000;stroke-width:0.79375;stroke-dasharray:none"
         d="m 293.78758,156.5699 c 9.70352,-0.65715 19.55291,-0.72935 28.99536,-0.95819 2.17928,-0.0528 4.33688,-0.11398 6.46558,-0.1899"
         sodipodi:nodetypes="csc" /><path
         id="path256"
         style="display:inline;fill:none;stroke:#ff0000;stroke-width:0.79375;stroke-dasharray:none"
         d="m 198.01706,253.76859 c 1.1449,-2.63792 2.28546,-5.33338 3.42312,-8.07203 4.8444,-11.66179 9.63637,-24.107 15.14648,-35.75063"
         sodipodi:nodetypes="csc" /><path
         id="path254"
         style="display:inline;fill:none;stroke:#ff0000;stroke-width:0.79375;stroke-dasharray:none"
         d="m 70.06543,224.72011 c 12.296333,11.23496 23.692475,22.88292 33.50771,32.82304 1.49307,1.51207 2.94957,2.98463 4.37097,4.41772 M 70.06543,208.35002 c 7.599631,7.38427 14.806959,14.73389 21.455543,21.52358 6.922188,7.0691 13.238687,13.53121 19.033807,19.33562"
         sodipodi:nodetypes="csccsc" /><path
         id="path252"
         style="display:inline;fill:none;stroke:#ff0000;stroke-width:0.79375;stroke-dasharray:none"
         d="m 436.97286,126.56853 c -1.17648,-4.1621 -2.40247,-8.33341 -3.63098,-12.47194 -5.91924,-19.940375 -11.89693,-39.119525 -14.23621,-55.752255"
         sodipodi:nodetypes="csc" /><path
         id="path251"
         style="display:inline;fill:none;stroke:#000000;stroke-width:0.79375;stroke-dasharray:none"
         d="m 436.973,126.56903 -1.4e-4,-5e-4"
         sodipodi:nodetypes="cc" /><path
         id="path248"
         style="display:inline;fill:none;stroke:#ff0000;stroke-width:0.79375;stroke-dasharray:none"
         d="m 335.21394,209.76086 c 9.05924,0.0383 18.55923,0.63173 28.39642,1.11943 11.27873,0.55917 23.00056,0.97936 33.90823,0.44078"
         sodipodi:nodetypes="csc" /><path
         id="path246"
         style="display:inline;fill:none;stroke:#ff0000;stroke-width:0.79375;stroke-dasharray:none"
         d="m 224.67709,328.80768 c 3.07898,-6.57983 6.1055,-13.29503 9.0911,-19.98463 5.20574,-11.66406 10.28707,-23.25029 15.51209,-34.11529"
         sodipodi:nodetypes="csc" /><path
         id="path245"
         style="display:inline;fill:none;stroke:#000000;stroke-width:0.79375;stroke-dasharray:none"
         d="m 224.67689,328.80812 2e-4,-4.4e-4"
         sodipodi:nodetypes="cc" /><path
         id="path243"
         style="display:inline;fill:none;stroke:#ff0000;stroke-width:0.79375;stroke-dasharray:none"
         d="m 70.065431,350.11088 c 12.130014,7.60995 23.780635,15.9187 34.313629,22.99129 3.54097,2.37766 6.95562,4.6156 10.25383,6.7037"
         sodipodi:nodetypes="csc" /><path
         id="path362"
         style="display:inline;fill:none;stroke:#000000;stroke-width:0.79375;stroke-dasharray:none"
         d="m 416.67825,357.23928 5e-4,1.5e-4"
         sodipodi:nodetypes="cc" /><path
         id="path240"
         style="display:inline;fill:none;stroke:#ff0000;stroke-width:0.79375;stroke-dasharray:none"
         d="m 357.14559,437.82889 c 4.03314,-11.57651 4.77999,-23.73006 5.19178,-37.16843 0.0703,-2.29367 0.13081,-4.62474 0.19607,-6.97126"
         sodipodi:nodetypes="csc" /><path
         id="path239"
         style="display:inline;fill:none;stroke:#ff0000;stroke-width:0.79375;stroke-dasharray:none"
         d="m 386.54961,287.43187 c 14.13798,1.60095 29.40189,4.96629 44.2105,8.37878 4.2428,0.97771 8.44816,1.95927 12.62112,2.94417"
         sodipodi:nodetypes="csc" /><path
         id="path238"
         style="display:inline;fill:none;stroke:#000000;stroke-width:0.79375;stroke-dasharray:none"
         d="m 386.54914,287.43182 4.7e-4,5e-5"
         sodipodi:nodetypes="cc" /><path
         id="path236"
         style="display:inline;fill:none;stroke:#ff0000;stroke-width:0.79375;stroke-dasharray:none"
         d="m 314.20811,420.69541 c 6.71746,-15.80739 8.46065,-33.08593 10.66497,-50.09789 0.48486,-3.74196 0.99203,-7.47096 1.5498,-11.14843"
         sodipodi:nodetypes="csc" /><path
         id="path356"
         style="display:inline;fill:none;stroke:#ff0000;stroke-width:0.79375;stroke-dasharray:none"
         d="m 298.21077,413.16725 c 8.37497,-17.50837 10.9239,-37.12589 14.1933,-55.63818 0.57567,-3.2596 1.17366,-6.4849 1.80931,-9.65706"
         sodipodi:nodetypes="csc" /><path
         id="path353"
         style="display:inline;fill:none;stroke:#ff0000;stroke-width:0.79375;stroke-dasharray:none"
         d="m 281.64289,316.9886 c -2.35344,6.7662 -4.50984,13.76233 -6.62654,20.79476 -5.5842,18.55271 -10.89164,37.35674 -19.46506,54.01421"
         sodipodi:nodetypes="csc" /><path
         id="path351"
         style="display:inline;fill:none;stroke:#ff0000;stroke-width:0.79375;stroke-dasharray:none"
         d="m 271.96619,307.81315 c -1.95393,5.80805 -3.78244,11.76139 -5.58224,17.74097 -5.91122,19.63923 -11.51234,39.56007 -21.00564,56.91822"
         sodipodi:nodetypes="csc" /><path
         id="path232"
         style="display:inline;fill:none;stroke:#ff0000;stroke-width:0.79375;stroke-dasharray:none"
         d="m 443.38124,252.7398 c -7.68994,-0.98762 -15.37765,-1.99615 -23.06264,-3.03039 -21.58932,-2.90546 -43.15602,-6.01363 -62.50562,-6.53884"
         sodipodi:nodetypes="csc" /><path
         style="display:inline;fill:none;stroke:#ff0000;stroke-width:0.79375;stroke-dasharray:none"
         d="m 88.47619,94.121095 c 13.29025,15.511735 21.76814,39.131535 29.40139,58.384595 2.90245,7.32079 5.68279,14.0102 8.41983,19.80949"
         id="path331"
         sodipodi:nodetypes="csc" /><path
         style="display:inline;fill:none;stroke:#ff0000;stroke-width:0.79375;stroke-dasharray:none"
         d="m 81.533061,104.93027 c 9.994077,11.924 17.508022,29.61325 25.935559,48.98814 4.94372,11.36563 10.20182,23.31129 15.80405,33.17096"
         id="path330"
         sodipodi:nodetypes="csc" /><path
         style="display:inline;fill:none;stroke:#0000ff;stroke-width:0.79375;stroke-dasharray:none"
         d="M 123.27267,187.08938 88.47619,94.121095"
         id="path320"
         sodipodi:nodetypes="cc" /><path
         style="display:inline;fill:none;stroke:#ff0000;stroke-width:0.79375;stroke-dasharray:none"
         d="m 169.91982,174.68423 c 2.22159,-3.27324 4.47855,-6.84648 6.76656,-10.64884 2.92314,-4.85787 5.89694,-10.0897 8.94643,-15.40506"
         id="path333"
         sodipodi:nodetypes="csc" /><path
         style="display:inline;fill:none;stroke:#ff0000;stroke-width:0.79375;stroke-dasharray:none"
         d="m 174.216,186.77654 c 5.40763,-7.63221 10.54628,-16.2664 15.10204,-24.28571 0.59239,-1.04275 1.17493,-2.07512 1.74863,-3.09672"
         id="path332"
         sodipodi:nodetypes="csc" /><path
         style="display:inline;fill:none;stroke:#0000ff;stroke-width:0.79375;stroke-dasharray:none"
         d="m 174.216,186.77654 11.41681,-38.14621"
         id="path325"
         sodipodi:nodetypes="cc" /><path
         style="display:inline;fill:none;stroke:#ff0000;stroke-width:0.79375;stroke-dasharray:none"
         d="m 244.76006,93.619155 c 6.23914,-1.11393 12.47988,-1.66985 18.50636,-2.44991 3.21848,-0.41659 6.37582,-0.89711 9.38767,-1.47282"
         id="path335"
         sodipodi:nodetypes="csc" /><path
         style="display:inline;fill:none;stroke:#ff0000;stroke-width:0.79375;stroke-dasharray:none"
         d="m 252.3899,103.41505 c 5.98429,-1.07936 12.1714,-1.92444 18.35138,-2.92423 3.2665,-0.528435 6.53099,-1.100095 9.70746,-1.742155"
         id="path334"
         sodipodi:nodetypes="csc" /><path
         style="display:inline;fill:none;stroke:#0000ff;stroke-width:0.79375;stroke-dasharray:none"
         d="m 244.76006,93.619165 35.68868,5.1295"
         id="path326"
         sodipodi:nodetypes="cc" /><path
         style="display:inline;fill:none;stroke:#ff0000;stroke-width:0.79375;stroke-dasharray:none"
         d="m 284.65741,44.689145 c -1.82203,-2.94913 -3.79447,-6.04513 -5.87865,-9.28656 -6.34027,-9.86071 -13.71463,-21.06718 -18.40219,-32.53756"
         id="path337"
         sodipodi:nodetypes="csc" /><path
         style="display:inline;fill:none;stroke:#ff0000;stroke-width:0.79375;stroke-dasharray:none"
         d="m 298.24847,49.614555 c -2.07393,-3.36269 -4.3204,-6.89396 -6.6732,-10.58912 -5.71521,-8.97594 -12.05779,-18.91887 -16.82081,-28.92581"
         id="path336"
         sodipodi:nodetypes="csc" /><path
         style="display:inline;fill:none;stroke:#0000ff;stroke-width:0.79375;stroke-dasharray:none"
         d="M 298.24847,49.614565 260.37657,2.865045"
         id="path327"
         sodipodi:nodetypes="cc" /><path
         style="display:inline;fill:none;stroke:#0000ff;stroke-width:0.79375;stroke-dasharray:none"
         d="M 107.94411,261.96087 70.06543,208.35002"
         id="path338"
         sodipodi:nodetypes="cc" /><path
         style="display:inline;fill:none;stroke:#0000ff;stroke-width:0.79375;stroke-dasharray:none"
         d="m 198.01706,253.76859 12.62436,-55.59942"
         id="path339"
         sodipodi:nodetypes="cc" /><path
         style="display:inline;fill:none;stroke:#0000ff;stroke-width:0.79375;stroke-dasharray:none"
         d="m 285.44906,145.86336 43.79945,9.55847"
         id="path340"
         sodipodi:nodetypes="cc" /><path
         style="display:inline;fill:none;stroke:#0000ff;stroke-width:0.79375;stroke-dasharray:none"
         d="m 372.77451,86.018505 -29.7361,-44.41891"
         id="path341"
         sodipodi:nodetypes="cc" /><path
         style="display:inline;fill:none;stroke:#0000ff;stroke-width:0.79375;stroke-dasharray:none"
         d="M 114.63289,379.80587 70.065427,335.63346"
         id="path342"
         sodipodi:nodetypes="cc" /><path
         style="display:inline;fill:none;stroke:#0000ff;stroke-width:0.79375;stroke-dasharray:none"
         d="m 224.67689,328.80812 17.39517,-68.37891"
         id="path343"
         sodipodi:nodetypes="cc" /><path
         style="display:inline;fill:none;stroke:#0000ff;stroke-width:0.79375;stroke-dasharray:none"
         d="M 397.51858,211.32107 324.96319,196.59901"
         id="path344"
         sodipodi:nodetypes="cc" /><path
         style="display:inline;fill:none;stroke:#0000ff;stroke-width:0.79375;stroke-dasharray:none"
         d="M 436.97285,126.56851 407.01953,55.683815"
         id="path345"
         sodipodi:nodetypes="cc" /><path
         style="display:inline;fill:none;stroke:#0000ff;stroke-width:0.79375;stroke-dasharray:none"
         d="m 357.81298,243.17058 85.56823,20.68064"
         id="path346"
         sodipodi:nodetypes="cc" /><path
         style="display:inline;fill:none;stroke:#0000ff;stroke-width:0.79375;stroke-dasharray:none"
         d="m 386.54961,287.43187 56.8316,26.3821"
         id="path347"
         sodipodi:nodetypes="cc" /><path
         id="path348"
         style="display:inline;fill:none;stroke:#ff0000;stroke-width:0.79375;stroke-dasharray:none"
         d="m 411.31151,343.53381 c 4.73855,1.39163 9.71619,3.07004 14.85561,4.91916 m -9.48837,8.78646 c 6.2487,1.96318 13.03401,4.59962 20.13988,7.61939 m -10.65151,-16.40585 c 5.58031,2.00776 11.35134,4.21677 17.21411,6.47846"
         sodipodi:nodetypes="cccccc" /><path
         style="display:inline;fill:none;stroke:#0000ff;stroke-width:0.79375;stroke-dasharray:none"
         d="m 362.53344,393.6892 10.93163,44.13968"
         id="path350"
         sodipodi:nodetypes="cc" /><path
         style="display:inline;fill:none;stroke:#0000ff;stroke-width:0.79375;stroke-dasharray:none"
         d="m 271.96619,307.81315 -16.4149,83.98442"
         id="path354"
         sodipodi:nodetypes="cc" /><path
         style="display:inline;fill:none;stroke:#0000ff;stroke-width:0.79375;stroke-dasharray:none"
         d="m 314.21338,347.87201 -0.005,72.8234"
         id="path358"
         sodipodi:nodetypes="cc" /><path
         style="display:inline;fill:none;stroke:#0000ff;stroke-width:0.79375;stroke-dasharray:none"
         d="m 411.31149,343.53381 32.06972,24.17685"
         id="path363"
         sodipodi:nodetypes="cc" /><path
         style="display:inline;opacity:1;fill:#000000;stroke:#0000ff;stroke-width:0.79375;stroke-dasharray:none;stroke-opacity:1"
         d="m 104.97602,41.786065 -23.873329,0.0865"
         id="path526" /><path
         style="display:inline;opacity:1;fill:#000000;stroke:#0000ff;stroke-width:0.79375;stroke-dasharray:none;stroke-opacity:1"
         d="m 189.28823,9.815355 18.57886,-18.88657"
         id="path527" /><path
         id="path521"
         style="display:inline;opacity:1;fill:none;stroke:#ff0000;stroke-width:0.79375;stroke-dasharray:none;stroke-opacity:1"
         d="m 104.97611,41.786075 c -7.148874,-1.91509 -13.967155,-4.86802 -20.190583,-8.76019 -1.415231,-0.8851 -2.799692,-1.81877 -4.155691,-2.79738" /><path
         id="path519"
         style="display:inline;opacity:1;fill:none;stroke:#ff0000;stroke-width:0.79375;stroke-dasharray:none;stroke-opacity:1"
         d="m 199.64302,-12.546825 c -0.0121,0.0477 -0.0243,0.0953 -0.0366,0.14293 -2.06278,8.01313 -5.6459,15.49374 -10.3182,22.21925" /><path
         id="path516"
         style="display:inline;opacity:1;fill:none;stroke:#ff0000;stroke-width:0.79375;stroke-dasharray:none;stroke-opacity:1"
         d="m 193.8446,18.541955 c 5.7918,-7.62965 10.86411,-16.78674 14.02249,-27.61316" /><path
         id="path514"
         style="display:inline;opacity:1;fill:none;stroke:#ff0000;stroke-width:0.79375;stroke-dasharray:none;stroke-opacity:1"
         d="m 81.102692,41.872585 c 6.475357,3.5635 14.510473,7.09161 23.565808,9.5111" /><path
         id="path500"
         style="display:inline;opacity:1;fill:none;stroke:#000000;stroke-width:0.79375;stroke-dasharray:none;stroke-opacity:1"
         d="m 80.629836,30.228505 c -3.719716,-2.68446 -7.225268,-5.70697 -10.56434,-8.99208 v 13.53251 0 c 2.809905,2.14662 6.548862,4.63364 11.037196,7.10365 z" /><path
         id="path518"
         style="display:inline;opacity:1;fill:none;stroke:#000000;stroke-width:0.79375;stroke-dasharray:none;stroke-opacity:1"
         d="m 199.64314,-12.547315 -1.2e-4,4.9e-4" /><path
         id="path517"
         style="display:inline;opacity:1;fill:none;stroke:#000000;stroke-width:0.79375;stroke-dasharray:none;stroke-opacity:1"
         d="m 207.86709,-9.071205 c 2.25519,-7.73048 3.53456,-16.31208 3.40323,-25.79644 l -9.42165,-0.16588 c 0.0392,1.34599 -0.10472,2.62799 -0.1173,3.95583 -0.0606,6.39927 -0.58788,12.63512 -2.08823,18.53038 z" /><path
         d="m 104.66855,51.383935 c 14.67506,3.92101 32.02949,4.93016 49.76699,-1.53995 0.18855,-0.0688 22.76831,-9.38088 39.40897,-31.30197 l -4.55631,-8.7266 c -9.61803,13.84462 -23.85144,24.48942 -38.93923,29.993 -15.01437,5.47679 -30.87366,5.86183 -45.37294,1.97766 z"
         style="display:inline;opacity:1;fill:none;stroke:#000000;stroke-width:0.79375;stroke-dasharray:none;stroke-opacity:1"
         id="path524" /><path
         id="path497"
         style="display:inline;opacity:1;fill:none;stroke:#000000;stroke-width:0.79375;stroke-dasharray:none;stroke-opacity:1"
         d="m 274.75426,10.099215 c -5.84619,-12.28277 -9.31261,-24.66196 -6.31815,-35.4678 0.93265,-3.36556 2.49202,-6.57848 4.57711,-9.66469 v 0 h -13.18177 m 14.92281,45.13249 -14.37769,-7.23419 c -4.24774,-10.39418 -6.28922,-21.00507 -3.35569,-31.0277 0.67949,-2.32153 1.62589,-4.6115 2.81057,-6.8706" /><path
         id="path495"
         style="display:inline;opacity:1;fill:none;stroke:#000000;stroke-width:0.79375;stroke-dasharray:none;stroke-opacity:1"
         d="m 298.24847,49.614555 c 9.14748,14.83177 14.9385,26.38394 11.6929,34.25434 -3.24413,7.86683 -15.51651,12.05478 -29.49263,14.87977 l -7.79465,-9.05224 m 0,0 c 11.70286,-2.237 21.20907,-5.91128 23.56996,-12.85752 2.45657,-7.22776 -2.82319,-17.99764 -11.56664,-32.14976 l 13.59106,4.92541" /><path
         id="path502"
         style="display:inline;opacity:1;fill:none;stroke:#000000;stroke-width:0.79375;stroke-dasharray:none;stroke-opacity:1"
         d="m 330.35401,-4.211115 c 0.2497,13.02519 5.62216,28.76191 12.68448,45.81064 l 12.84826,2.82839 c -4.29234,-13.02038 -13.39559,-43.2386 -10.83649,-52.64241 2.95157,-10.846 12.18059,-18.57892 27.93886,-26.81851 l -25.76742,-5.2e-4 c -8.02963,5.7207 -12.97869,11.5662 -15.28279,18.75286 -1.1822,3.68739 -1.66815,7.72782 -1.5849,12.06955 z"
         sodipodi:nodetypes="sccsccss" /><path
         id="path491"
         style="display:inline;opacity:1;fill:none;stroke:#000000;stroke-width:0.79375;stroke-dasharray:none;stroke-opacity:1"
         d="m 372.77452,86.018495 c 7.55612,20.676235 12.24942,39.885685 7.33304,51.493205 -6.03743,14.25429 -26.56625,17.04364 -50.85904,17.91011 l -8.98657,-10.43647 m 0,0 c 21.74347,-0.9119 41.91543,-3.92899 47.66832,-16.84031 5.12322,-11.49812 -1.18919,-30.842485 -9.7117,-51.320605 l 14.55595,9.19407" /><path
         id="path490"
         style="display:inline;opacity:1;fill:none;stroke:#000000;stroke-width:0.79375;stroke-dasharray:none;stroke-opacity:1"
         d="m 210.64142,198.16877 5.94524,11.77715 c 4.83006,-7.21036 15.0125,-29.56389 28.02529,-38.78997 13.94784,-9.88904 31.0821,-13.36081 49.17581,-14.58618 l -8.33851,-10.70632 c -18.44873,0.85809 -35.22635,3.51853 -48.29007,13.8684 -10.92412,8.65474 -19.25105,22.68596 -26.51776,38.43692 z"
         sodipodi:nodetypes="ccaccsc" /><path
         id="path488"
         style="display:inline;opacity:1;fill:none;stroke:#000000;stroke-width:0.79375;stroke-dasharray:none;stroke-opacity:1"
         d="m 107.94432,261.96074 c 29.92564,30.1717 43.82164,37.60305 56.60844,33.34577 12.05321,-4.01302 23.17297,-17.82665 33.4641,-41.53803 l -4.76921,-13.4245 c -9.21185,22.386 -18.74759,41.40367 -31.65802,43.55754 -12.0816,2.01562 -27.11779,-10.73726 -51.03462,-34.69245 z" /><path
         id="path485"
         style="display:inline;opacity:1;fill:none;stroke:#000000;stroke-width:0.79375;stroke-dasharray:none;stroke-opacity:1"
         d="m 443.38123,-9.374195 c -21.53965,10.06111 -31.76043,20.87907 -35.67686,34.53684 -2.58555,9.01661 -2.42342,19.27088 -0.68484,30.52116 l 12.08614,2.66053 m 0,0 c -1.39183,-9.89623 -1.49564,-18.89101 0.46725,-26.60831 2.80689,-11.03561 9.83985,-19.45889 23.80831,-26.98826 v -14.12196" /><path
         d="m 242.07206,260.42905 7.20834,14.27873 c 10.5907,-22.02248 21.77161,-41.082 35.7756,-51.82062 14.15339,-10.85318 31.18977,-13.20653 50.15817,-13.12633 l -10.25105,-13.16199 c -19.4731,1.06216 -37.63242,5.36107 -52.0144,17.71572 -12.36936,10.62574 -21.94394,27.20984 -30.87666,46.11449 z"
         style="display:inline;opacity:1;fill:none;stroke:#000000;stroke-width:0.79375;stroke-dasharray:none;stroke-opacity:1"
         id="path508" /><path
         style="display:inline;opacity:1;fill:none;stroke:#000000;stroke-width:0.79375;stroke-dasharray:none;stroke-opacity:1"
         d="m 218.87657,312.48115 5.80032,16.32697 c -16.05902,27.50507 -29.22745,49.96582 -45.22214,60.5578 -17.71995,11.73449 -35.80088,8.81314 -64.82186,-9.56005 l -1.8058,-13.90531 c 20.32784,13.93119 37.18176,22.46815 52.75288,16.95501 15.79361,-5.59193 30.26671,-25.63808 43.20766,-50.00624 3.4748,-6.54316 6.83915,-13.39794 10.08894,-20.36818"
         id="path479" /><path
         d="m 362.53344,393.68914 12.78061,12.11813 c 0.2079,-22.9691 0.47974,-45.2539 13.72526,-50.78398 6.51723,-2.72098 16.17511,-1.38576 27.63914,2.21588 l -5.36711,-13.7051 c -14.486,-4.25425 -26.7376,-5.8287 -34.5457,-1.40613 -12.63378,7.15589 -13.63282,30.0104 -14.2322,51.5612 z"
         style="display:inline;opacity:1;fill:none;stroke:#000000;stroke-width:0.79375;stroke-dasharray:none;stroke-opacity:1"
         id="path511" /><path
         d="m 314.21339,347.87179 12.20959,11.57707 c 3.8008,-25.05906 9.95184,-47.72534 27.4097,-55.79298 10.70836,-4.94855 25.6698,-4.40414 42.30749,-1.45159 l -9.59114,-14.77222 c -16.04299,-1.81662 -30.6359,-1.36171 -41.46879,3.8747 -18.13532,8.76626 -25.7303,30.93104 -30.86685,56.56502 z"
         style="display:inline;opacity:1;fill:none;stroke:#000000;stroke-width:0.79375;stroke-dasharray:none;stroke-opacity:1"
         id="path510" /><path
         id="path473"
         style="display:inline;opacity:1;fill:none;stroke:#000000;stroke-width:0.79375;stroke-dasharray:none;stroke-opacity:1"
         d="m 280.04214,437.82888 c 8.13893,-7.39242 13.90778,-15.75406 18.16863,-24.66163 l 15.99734,7.52816 m 0,0 c -2.52872,5.95053 -5.76232,11.69258 -9.99076,17.13347 h -24.17521" /><path
         d="m 163.25723,437.82908 h 44.02522 c 8.83768,-4.11809 16.79068,-8.9003 23.56859,-14.46475 3.97036,-3.25953 7.53749,-6.78734 10.76626,-10.53992 5.52763,-6.42439 10.0636,-13.50666 13.93404,-21.02662 l -10.17303,-9.32553 c -2.04328,3.73606 -4.26696,7.35336 -6.71276,10.82363 -4.60244,6.53025 -9.9917,12.53957 -16.44706,17.83922 -14.96639,12.28692 -35.66201,20.75814 -58.96126,26.69397 z"
         style="display:inline;opacity:1;fill:none;stroke:#000000;stroke-width:0.79375;stroke-dasharray:none;stroke-opacity:1"
         id="path509" /><path
         d="m 271.96636,307.81325 9.67641,9.17515 c 8.29547,-23.84967 19.0392,-44.84194 39.12061,-54.49694 12.12125,-5.82779 27.64369,-7.52466 44.9771,-7.10964 l -7.92769,-12.21114 c -17.61736,-0.4782 -33.39667,1.18488 -45.68196,7.09155 -20.93435,10.06508 -31.72048,32.45131 -40.16447,57.55102 z"
         style="display:inline;opacity:1;fill:none;stroke:#000000;stroke-width:0.79375;stroke-dasharray:none;stroke-opacity:1"
         id="path1" /><path
         id="path466"
         style="display:inline;opacity:1;fill:none;stroke:#000000;stroke-width:0.79375;stroke-dasharray:none;stroke-opacity:1"
         d="m 123.27258,187.08935 c 6.98103,12.2863 14.49641,21.33332 22.60379,21.98263 9.19746,0.73662 19.15671,-9.33439 28.33988,-22.29528 l -4.29638,-12.09228 c -9.0693,13.36251 -17.5493,21.72536 -25.14524,20.26749 -6.52242,-1.25184 -12.39258,-9.74485 -18.47691,-22.63634 z" /><path
         d="m 70.065496,93.838715 c 3.783287,2.49332 8.293324,7.304165 11.467517,11.091315 l 6.943245,-10.809165 c -2.997024,-3.49798 -6.239013,-6.58337 -9.77098,-9.11366 -2.716459,-1.94606 -5.604321,-3.56343 -8.639782,-4.89892 z"
         style="display:inline;opacity:1;fill:none;stroke:#000000;stroke-width:0.79375;stroke-dasharray:none;stroke-opacity:1"
         id="path505" /><path
         id="path459"
         style="display:inline;opacity:1;fill:none;stroke:#000000;stroke-width:0.79375;stroke-dasharray:none;stroke-opacity:1"
         d="m 185.63312,148.62968 5.43378,10.7642 c 11.33068,-20.1768 23.86987,-39.54575 31.46578,-45.07889 7.59591,-5.53314 29.85722,-10.89993 29.85722,-10.89993 l -7.62964,-9.795975 c 0,0 -19.09954,4.18119 -29.20803,12.971825 -10.10849,8.79063 -20.83758,26.20936 -29.91911,42.03877 z"
         sodipodi:nodetypes="cczcczc" /><path
         style="display:inline;opacity:1;fill:none;stroke:#000000;stroke-width:0.79375;stroke-dasharray:none;stroke-opacity:1"
         d="M 50.800005,457.2 V -50.800005 H 457.2 V 457.2 Z"
         id="rect392" /><path
         d="m 378.11078,197.9812 19.4076,13.33975 c 18.52555,-0.91473 34.70289,-4.59473 42.37209,-15.05696 1.45954,-1.99109 2.61087,-4.22806 3.49075,-6.67763 v -36.85512 c -1.60341,-8.40503 -3.89279,-17.26259 -6.4084,-26.16223 l -13.90613,-8.78395 c 7.36623,27.16266 12.81015,54.64431 3.63182,68.124 -7.95643,11.68518 -26.90064,12.84764 -48.58773,12.07214 z"
         style="display:inline;opacity:1;fill:none;stroke:#000000;stroke-width:0.79375;stroke-dasharray:none;stroke-opacity:1"
         id="path512" /><path
         id="path392"
         style="display:inline;fill:none;stroke:#ff0000;stroke-width:0.79375;stroke-dasharray:none"
         d="m 50.800005,261.34566 c 11.144909,12.62061 22.409979,25.34582 33.8971,38.26432 25.044955,28.16573 51.142915,57.24752 73.435275,50.59298 22.29236,-6.65454 40.77641,-49.04461 56.82483,-84.37733 16.04841,-35.33273 29.65928,-63.60382 47.50949,-77.30438 17.85021,-13.70056 39.93761,-12.82894 67.69484,-12.26815 27.75723,0.5608 61.18095,0.8107 72.20218,-16.41257 11.02124,-17.22326 -0.36135,-51.91759 -11.33154,-83.389665 -10.97019,-31.47208 -21.52665,-59.71813 -7.17314,-78.94428 12.49029,-16.73042 43.84188,-26.62895 73.34097,-33.74319" /><path
         id="path389"
         style="display:inline;fill:none;stroke:#ff0000;stroke-width:0.79375;stroke-dasharray:none"
         d="m 50.800005,112.49117 c 11.324043,17.27756 23.266841,35.73404 38.12315,59.74136 18.863235,30.48238 42.421565,69.91044 59.896835,75.71828 17.47528,5.80785 28.86539,-22.00521 39.53809,-47.91336 10.6727,-25.90814 20.62671,-49.90827 38.03364,-62.38658 17.40692,-12.47832 42.26466,-13.43331 66.45808,-14.75427 24.19342,-1.32094 47.71959,-3.00765 51.90219,-16.0924 4.18261,-13.084735 -10.97887,-37.565935 -25.46907,-60.838445 -14.4902,-23.27251 -28.30739,-45.33356 -21.94975,-62.28729 5.0797,-13.54586 23.03822,-23.83001 46.16299,-34.47847" /><path
         id="path387"
         style="display:inline;fill:none;stroke:#ff0000;stroke-width:0.79375;stroke-dasharray:none"
         d="m 112.71494,90.979275 c 28.79255,-1.91499 57.58511,-3.82999 78.14888,-16.24315 20.56377,-12.41316 32.89875,-35.32448 45.23374,-58.23581 17.49524,18.89227 34.99009,37.78412 26.28295,46.8165 -8.70714,9.03238 -43.61478,8.2045 -66.00469,23.43197 -22.3899,15.227465 -32.25926,46.508425 -44.11632,49.889475 -11.85705,3.38105 -25.70067,-21.13873 -39.54456,-45.658985 v 0" /><path
         id="path385"
         style="display:inline;fill:none;stroke:#ff0000;stroke-width:0.79375;stroke-dasharray:none"
         d="m 50.800007,377.16786 c 14.163246,5.67124 28.762403,11.54957 44.197154,17.82486 32.273579,13.12142 57.711789,27.63879 81.948729,19.23116 24.23694,-8.40764 47.26969,-39.73928 61.59798,-75.59639 14.3283,-35.8571 30.43582,-75.89713 53.69683,-94.72268 23.26102,-18.82554 53.67334,-16.43427 83.52605,-14.14066 29.02422,2.22995 57.51724,4.36742 81.43326,-10.28475"
         sodipodi:nodetypes="csssssc" /><path
         id="path382"
         style="display:inline;fill:none;stroke:#ff0000;stroke-width:0.79375;stroke-dasharray:none"
         d="m 246.81681,457.2 c 27.82021,-18.92572 34.60256,-52.78621 42.20913,-87.10075 8.26173,-37.27002 17.49478,-75.07124 41.46394,-90.09277 23.96915,-15.02152 62.67154,-7.26157 97.68702,-0.64645 9.94381,1.87859 19.59001,3.66479 29.02311,5.38485" /><path
         id="path379"
         style="display:inline;fill:none;stroke:#ff0000;stroke-width:0.79375;stroke-dasharray:none"
         d="m 335.65575,457.19999 c 0.95483,-14.91133 1.90965,-29.52355 2.86449,-43.65519 2.52835,-37.41955 5.05654,-71.46591 19.80524,-85.03472 14.7487,-13.5688 41.71666,-6.65826 72.22511,1.17955 8.62686,2.21629 17.53666,4.50669 26.64942,6.85024" /><path
         id="path376"
         style="display:inline;fill:none;stroke:#ff0000;stroke-width:0.79375;stroke-dasharray:none"
         d="m 410.65498,457.2 c -2.89382,-6.43092 -5.05469,-13.45698 -6.68638,-20.09826 -4.85436,-19.75808 -5.02467,-36.1086 2.6401,-43.34755 7.66477,-7.23895 23.1637,-5.36546 42.83662,3.57677 2.5376,1.15346 5.14461,2.42451 7.75469,3.80402" /><path
         id="path375"
         style="display:inline;fill:none;stroke:#ff0000;stroke-width:0.79375;stroke-dasharray:none"
         d="M 175.13343,-50.800004 A 60.620991,54.111008 66.243397 0 1 145.19786,10.235233 60.620991,54.111008 66.243397 0 1 71.250642,-23.450303 60.620991,54.111008 66.243397 0 1 65.559343,-50.800007" /></g></g></svg>
